<?xml version="1.0" encoding="UTF-8"?>
<!DOCTYPE svg PUBLIC "-//W3C//DTD SVG 1.1//EN" "http://www.w3.org/Graphics/SVG/1.1/DTD/svg11.dtd">
<svg xmlns="http://www.w3.org/2000/svg" version="1.1" width="58px" height="59px" style="shape-rendering:geometricPrecision; text-rendering:geometricPrecision; image-rendering:optimizeQuality; fill-rule:evenodd; clip-rule:evenodd" xmlns:xlink="http://www.w3.org/1999/xlink">
<g><path style="opacity:1" fill="#e92438" d="M -0.5,-0.5 C 18.8333,-0.5 38.1667,-0.5 57.5,-0.5C 57.5,19.1667 57.5,38.8333 57.5,58.5C 38.1667,58.5 18.8333,58.5 -0.5,58.5C -0.5,38.8333 -0.5,19.1667 -0.5,-0.5 Z"/></g>
<g><path style="opacity:1" fill="#fef2f3" d="M 32.5,9.5 C 43.8242,8.32557 48.9908,13.3256 48,24.5C 45.7281,30.0563 41.5614,32.723 35.5,32.5C 34.2507,46.1186 27.2507,50.6186 14.5,46C 6.01666,37.2062 6.68332,29.2062 16.5,22C 19.146,21.5026 21.8127,21.3359 24.5,21.5C 25.1921,16.0979 27.8588,12.0979 32.5,9.5 Z"/></g>
<g><path style="opacity:1" fill="#ea2938" d="M 33.5,14.5 C 40.7988,13.3714 43.9654,16.3714 43,23.5C 39.3058,28.3416 35.3058,28.6749 31,24.5C 29.8613,20.5789 30.6946,17.2456 33.5,14.5 Z"/></g>
<g><path style="opacity:1" fill="#ea2d3a" d="M 18.5,26.5 C 27.9907,25.8259 32.324,30.3259 31.5,40C 31.3552,40.772 31.0219,41.4387 30.5,42C 27.7365,41.4467 24.9031,41.6134 22,42.5C 18.196,42.6004 15.5293,40.9338 14,37.5C 12.9591,32.7325 14.4591,29.0658 18.5,26.5 Z"/></g>
<g><path style="opacity:1" fill="#fef3f3" d="M 19.5,30.5 C 25.487,29.9773 27.487,32.4773 25.5,38C 22.4904,40.2219 19.9904,39.7219 18,36.5C 17.2516,34.1599 17.7516,32.1599 19.5,30.5 Z"/></g>
</svg>
