<svg id="svg" version="1.1" xmlns="http://www.w3.org/2000/svg" xmlns:xlink="http://www.w3.org/1999/xlink" width="400" height="350.32679738562086" viewBox="0, 0, 400,350.32679738562086"><g id="svgg"><path id="path0" d="M62.661 57.364 C 56.632 59.542,51.511 63.252,49.968 66.561 C 49.462 67.647,48.827 68.932,48.559 69.416 C 47.798 70.787,47.332 74.450,47.330 79.089 C 47.326 84.974,46.202 86.511,41.858 86.571 C 40.710 86.587,38.421 87.109,37.947 87.463 C 37.897 87.500,37.610 89.306,37.308 91.475 C 36.593 96.623,36.594 96.625,41.329 96.815 C 47.769 97.074,47.323 94.936,47.325 125.514 C 47.327 154.923,46.711 151.808,52.518 151.770 C 57.190 151.740,58.934 151.288,59.290 150.016 C 59.420 149.549,59.543 138.236,59.562 124.876 C 59.606 94.296,58.771 96.757,69.103 96.757 C 73.442 96.757,74.568 96.651,75.394 96.163 L 76.400 95.569 76.200 91.693 C 75.929 86.443,76.127 86.591,69.363 86.591 C 63.413 86.591,62.481 86.345,60.692 84.308 L 59.520 82.973 59.661 79.611 C 60.010 71.290,63.845 67.309,71.511 67.309 C 76.157 67.309,76.668 66.767,77.028 61.447 C 77.213 58.711,77.175 58.501,76.280 57.328 L 75.337 56.091 70.710 56.110 C 66.319 56.127,65.907 56.191,62.661 57.364 M112.570 86.103 C 110.885 86.386,108.470 87.120,106.917 87.821 C 105.426 88.494,104.021 89.045,103.795 89.045 C 103.126 89.045,101.225 90.119,99.988 91.197 C 99.354 91.748,98.663 92.200,98.452 92.200 C 97.944 92.200,92.991 97.374,92.359 98.567 C 92.086 99.080,91.500 99.790,91.056 100.144 C 90.612 100.499,89.962 101.544,89.612 102.468 C 89.262 103.391,88.608 104.585,88.157 105.120 C 85.096 108.758,85.118 129.608,88.187 133.293 C 88.624 133.817,89.240 135.026,89.557 135.980 C 89.873 136.933,90.354 137.798,90.625 137.902 C 90.896 138.006,91.500 138.690,91.967 139.422 C 93.399 141.668,97.094 145.627,98.379 146.293 C 99.049 146.640,99.679 147.138,99.780 147.400 C 99.880 147.662,100.464 148.074,101.077 148.315 C 101.690 148.556,103.473 149.355,105.041 150.089 C 110.898 152.836,119.495 153.687,125.679 152.133 C 128.592 151.401,128.895 151.270,134.083 148.501 C 137.289 146.790,138.963 146.535,140.022 147.595 C 140.288 147.860,140.367 152.293,140.283 162.244 L 140.162 176.512 141.226 177.970 C 142.273 179.405,142.332 179.432,144.989 179.681 C 148.039 179.967,152.477 179.653,153.016 179.114 C 153.524 178.606,153.697 88.223,153.192 87.278 C 152.852 86.643,152.431 86.591,147.632 86.591 C 141.791 86.591,141.573 86.677,141.125 89.175 C 140.630 91.934,138.652 92.572,136.021 90.821 C 129.215 86.290,121.143 84.667,112.570 86.103 M202.644 86.262 C 201.207 86.638,199.471 87.332,198.788 87.804 C 198.105 88.276,196.934 88.916,196.185 89.228 C 195.437 89.539,194.312 90.337,193.685 91.002 C 192.864 91.872,192.363 92.145,191.891 91.977 C 190.975 91.652,189.658 90.413,189.658 89.877 C 189.658 87.434,187.981 86.645,182.613 86.561 C 177.615 86.483,176.522 86.800,176.197 88.427 C 175.914 89.840,175.925 148.249,176.208 149.664 C 176.641 151.827,184.941 152.853,187.818 151.099 L 188.957 150.405 188.964 133.835 C 188.973 112.573,189.620 105.351,191.586 104.597 C 191.892 104.479,192.491 103.716,192.916 102.901 C 197.188 94.714,213.231 94.837,217.519 103.090 C 217.976 103.969,218.599 104.895,218.902 105.147 C 220.491 106.466,220.613 108.034,220.830 129.886 L 221.034 150.570 222.261 151.183 C 224.368 152.235,231.331 152.069,232.552 150.937 L 233.479 150.077 233.479 132.395 C 233.479 105.827,234.292 103.000,243.286 98.292 L 245.884 96.933 250.286 96.945 C 257.694 96.965,262.471 100.533,264.990 107.925 L 265.903 110.605 266.080 130.463 C 266.293 154.241,265.640 151.797,271.779 151.797 C 276.599 151.797,277.857 151.353,278.196 149.531 C 278.866 145.938,278.135 105.662,277.350 102.914 C 274.126 91.628,267.010 86.177,254.800 85.642 C 249.868 85.426,244.828 86.108,242.594 87.294 C 241.919 87.653,240.381 88.420,239.176 88.999 C 236.929 90.079,235.856 90.915,233.373 93.514 C 231.282 95.705,230.484 95.516,225.986 91.764 C 219.179 86.087,210.830 84.119,202.644 86.262 M323.225 86.133 C 321.586 86.424,319.457 86.976,318.493 87.361 C 317.528 87.746,315.635 88.489,314.286 89.012 C 312.936 89.535,311.086 90.534,310.174 91.231 C 309.262 91.928,308.236 92.594,307.895 92.711 C 307.554 92.828,306.959 93.384,306.573 93.946 C 306.188 94.508,304.992 96.041,303.916 97.353 C 300.949 100.969,299.509 103.149,298.498 105.550 C 297.993 106.750,297.367 108.063,297.106 108.467 C 295.070 111.626,295.542 126.846,297.810 131.161 C 298.484 132.444,299.036 133.673,299.036 133.891 C 299.036 134.230,300.626 136.663,303.747 141.104 C 304.391 142.019,305.300 143.063,307.150 145.009 C 308.176 146.089,312.296 148.544,314.381 149.318 C 315.590 149.767,316.658 150.262,316.754 150.417 C 317.373 151.419,325.998 152.935,331.113 152.941 C 337.342 152.948,342.533 151.639,348.992 148.433 C 352.319 146.782,356.007 143.314,357.452 140.479 C 357.922 139.556,358.591 138.517,358.938 138.170 C 360.520 136.587,360.441 133.420,358.808 133.010 C 354.036 131.812,347.787 133.382,345.665 136.311 C 341.185 142.496,327.543 144.103,319.133 139.436 C 312.486 135.748,306.787 126.299,309.430 123.349 C 310.557 122.091,312.488 121.998,337.566 121.998 L 362.114 121.998 362.551 121.209 C 363.387 119.700,362.750 112.040,361.605 109.832 C 361.326 109.293,360.760 107.393,360.347 105.609 C 359.935 103.826,359.476 102.366,359.327 102.366 C 359.178 102.366,358.533 101.538,357.893 100.526 C 356.613 98.500,355.203 96.665,353.462 94.754 C 352.835 94.067,352.323 93.370,352.323 93.207 C 352.323 93.043,351.731 92.509,351.008 92.019 C 350.285 91.529,349.157 90.738,348.501 90.261 C 347.845 89.784,346.662 89.224,345.872 89.015 C 345.081 88.807,344.069 88.402,343.621 88.115 C 340.152 85.891,330.098 84.914,323.225 86.133 M335.548 96.593 C 339.250 97.372,344.382 100.581,345.556 102.851 C 345.859 103.438,346.535 104.346,347.059 104.869 C 349.022 106.833,349.189 110.751,347.379 112.390 C 346.283 113.382,313.426 113.434,311.918 112.446 C 306.946 109.189,314.910 98.104,323.317 96.579 C 326.828 95.943,332.487 95.949,335.548 96.593 M124.787 97.137 C 126.298 97.461,131.708 100.102,133.576 101.427 C 135.161 102.552,138.506 106.878,139.045 108.501 C 139.366 109.465,140.019 111.010,140.498 111.934 C 142.396 115.596,142.361 123.355,140.434 126.180 C 139.965 126.869,139.398 128.142,139.174 129.010 C 137.761 134.496,129.996 140.542,123.307 141.366 C 113.491 142.575,103.403 137.223,101.141 129.608 C 100.853 128.637,100.383 127.584,100.098 127.269 C 97.748 124.671,97.610 114.992,99.867 110.973 C 100.413 109.999,101.047 108.631,101.275 107.933 C 102.514 104.140,109.628 98.448,114.812 97.102 C 116.412 96.686,122.790 96.709,124.787 97.137 M209.179 220.644 C 208.443 220.918,207.576 221.382,207.251 221.675 C 206.926 221.967,206.245 222.310,205.738 222.437 C 205.230 222.564,203.968 223.446,202.933 224.398 C 198.826 228.175,198.036 228.785,194.369 231.013 C 191.680 232.647,190.643 232.901,183.685 233.632 C 181.006 233.913,178.532 234.293,178.188 234.475 C 177.845 234.657,176.269 235.154,174.688 235.579 C 171.321 236.484,172.269 235.703,160.848 246.985 C 152.605 255.128,149.515 257.748,146.188 259.412 C 145.320 259.847,144.294 260.476,143.909 260.812 C 143.523 261.147,142.445 261.721,141.513 262.087 C 140.443 262.507,139.638 263.098,139.326 263.691 C 139.055 264.208,138.545 264.722,138.192 264.834 C 137.840 264.946,136.776 265.943,135.827 267.050 C 134.879 268.157,133.033 270.180,131.725 271.546 C 130.417 272.912,128.880 274.765,128.310 275.665 C 127.739 276.565,127.129 277.301,126.955 277.301 C 126.780 277.301,126.223 278.129,125.716 279.141 C 124.234 282.102,121.954 285.533,119.708 288.184 C 115.193 293.511,111.528 291.875,104.645 281.460 C 104.259 280.877,103.273 279.618,102.454 278.663 C 101.635 277.708,100.964 276.708,100.964 276.441 C 100.964 274.299,91.279 274.385,88.930 276.547 C 88.109 277.304,84.307 281.108,81.964 283.519 C 79.568 285.984,77.831 286.423,72.743 285.847 C 60.340 284.443,59.130 284.894,53.794 292.914 C 52.707 294.547,51.620 296.001,51.377 296.145 C 51.134 296.289,50.730 296.801,50.479 297.283 C 49.946 298.307,46.893 301.932,44.363 304.543 C 42.706 306.255,40.699 307.840,37.894 309.656 C 34.834 311.637,33.897 312.290,32.005 313.759 C 30.888 314.626,29.839 315.549,29.674 315.810 C 29.509 316.071,29.055 316.545,28.667 316.863 C 28.278 317.181,27.782 317.653,27.564 317.913 C 27.347 318.172,26.459 319.126,25.592 320.033 C 24.724 320.939,23.225 322.617,22.261 323.760 C 20.255 326.138,13.670 333.666,11.995 335.495 C 11.377 336.170,10.399 337.274,9.822 337.949 C 2.498 346.511,1.640 347.415,0.837 347.415 C 0.079 347.415,0.000 347.563,0.000 348.992 L 0.000 350.570 198.773 350.570 C 382.370 350.570,397.546 350.526,397.546 349.998 C 397.546 349.342,396.431 347.404,395.115 345.773 C 394.620 345.160,393.663 343.916,392.989 343.010 C 392.314 342.104,391.338 340.871,390.820 340.269 C 389.074 338.241,387.375 336.027,386.762 334.981 C 386.427 334.409,385.745 333.541,385.247 333.053 C 384.749 332.564,383.943 331.534,383.456 330.762 C 382.109 328.628,376.688 322.676,374.645 321.089 C 367.662 315.662,364.813 312.521,363.123 308.384 C 362.584 307.066,361.849 305.567,361.489 305.053 C 361.128 304.540,360.652 303.560,360.431 302.876 C 359.932 301.336,357.713 299.452,355.127 298.372 C 354.067 297.929,352.883 297.369,352.498 297.128 C 351.473 296.488,346.655 294.955,343.072 294.129 C 341.359 293.734,338.993 293.028,337.814 292.560 C 336.635 292.092,334.803 291.607,333.742 291.482 C 330.797 291.135,329.113 290.636,327.958 289.766 C 327.379 289.330,326.323 288.764,325.611 288.508 C 324.553 288.127,322.132 286.106,320.245 284.029 C 317.937 281.487,314.427 278.635,312.957 278.106 C 312.006 277.765,310.830 277.115,310.342 276.663 C 308.420 274.881,302.848 274.830,300.989 276.576 C 300.585 276.956,299.498 277.601,298.573 278.010 C 297.402 278.528,295.349 280.263,291.811 283.724 C 289.016 286.458,286.580 288.747,286.397 288.811 C 286.214 288.875,286.065 289.124,286.065 289.363 C 286.065 289.879,284.744 291.128,283.874 291.435 C 283.536 291.555,283.260 291.909,283.260 292.223 C 283.260 293.692,275.629 300.441,273.209 301.113 C 267.718 302.638,265.670 300.086,261.555 286.591 C 261.025 284.855,260.189 282.410,259.695 281.157 C 259.201 279.904,258.611 277.774,258.383 276.424 C 258.118 274.856,257.614 273.435,256.987 272.487 C 256.446 271.671,255.738 269.936,255.412 268.631 C 255.086 267.326,254.556 265.863,254.235 265.381 C 253.913 264.899,252.890 262.932,251.961 261.010 C 251.032 259.088,249.909 257.037,249.464 256.452 C 249.019 255.868,248.332 254.759,247.937 253.988 C 247.543 253.216,246.810 252.203,246.309 251.736 C 245.809 251.268,245.399 250.688,245.399 250.446 C 245.399 250.205,244.965 249.683,244.435 249.288 C 243.904 248.892,242.918 248.098,242.244 247.524 C 241.569 246.950,239.755 245.420,238.212 244.125 C 235.751 242.057,233.697 240.053,231.178 237.261 C 230.780 236.820,229.304 235.436,227.898 234.186 C 226.492 232.936,224.417 230.728,223.287 229.278 C 222.158 227.829,220.907 226.249,220.508 225.767 C 220.109 225.285,219.475 224.378,219.099 223.751 C 218.723 223.124,218.261 222.612,218.072 222.612 C 217.883 222.612,217.165 222.117,216.476 221.512 C 214.969 220.189,211.506 219.777,209.179 220.644 " stroke="none" fill="#f6f6f9" fill-rule="evenodd"></path><path id="path1" d="M0.000 171.604 C 0.000 340.703,0.010 343.208,0.674 343.208 C 1.092 343.208,2.722 341.671,4.953 339.176 C 6.936 336.959,8.678 335.145,8.826 335.145 C 8.973 335.145,9.454 334.513,9.893 333.742 C 10.333 332.970,10.970 332.249,11.310 332.140 C 11.649 332.030,12.180 331.438,12.489 330.825 C 12.799 330.212,13.507 329.344,14.063 328.897 C 14.619 328.449,15.074 327.914,15.074 327.709 C 15.074 327.094,21.703 319.811,28.208 313.280 C 30.449 311.030,34.023 308.151,34.574 308.151 C 34.810 308.151,35.449 307.786,35.994 307.340 C 36.539 306.895,37.710 306.114,38.597 305.604 C 40.613 304.446,49.127 295.287,49.614 293.752 C 49.725 293.400,50.109 293.019,50.467 292.906 C 50.825 292.792,51.371 292.067,51.680 291.293 C 55.033 282.915,59.551 280.938,71.529 282.609 L 76.976 283.369 78.393 282.431 C 79.172 281.916,80.586 280.550,81.535 279.397 C 82.484 278.244,83.561 277.203,83.928 277.084 C 84.295 276.966,85.185 276.266,85.906 275.531 C 86.726 274.694,87.791 274.040,88.745 273.787 C 89.585 273.564,90.587 273.100,90.973 272.756 C 93.428 270.563,97.502 270.498,99.811 272.614 C 100.521 273.263,101.315 273.795,101.576 273.795 C 101.838 273.795,102.274 274.328,102.547 274.980 C 102.825 275.646,103.584 276.485,104.282 276.896 C 104.963 277.298,105.521 277.780,105.521 277.967 C 105.521 278.153,106.323 279.129,107.304 280.135 C 108.284 281.142,109.492 282.608,109.987 283.393 C 110.483 284.178,111.480 285.569,112.204 286.485 C 112.928 287.400,113.575 288.316,113.643 288.520 C 113.942 289.416,116.522 287.966,117.269 286.484 C 117.669 285.688,118.325 284.677,118.727 284.236 C 119.128 283.796,119.653 283.041,119.893 282.559 C 120.591 281.156,124.514 275.873,125.867 274.514 C 126.549 273.829,127.303 272.817,127.544 272.264 C 128.478 270.112,133.884 264.368,135.981 263.298 C 136.746 262.908,137.469 262.285,137.586 261.914 C 137.704 261.543,138.425 260.990,139.189 260.684 C 139.953 260.378,140.578 259.974,140.578 259.786 C 140.578 259.364,143.705 257.084,145.837 255.951 C 146.705 255.490,147.730 254.840,148.116 254.506 C 148.501 254.173,149.369 253.637,150.044 253.316 C 150.719 252.995,152.454 251.438,153.900 249.855 C 157.753 245.637,164.841 238.667,166.284 237.679 C 166.971 237.208,167.685 236.490,167.871 236.083 C 168.056 235.676,168.788 235.068,169.496 234.732 C 170.205 234.395,171.346 233.740,172.031 233.274 C 173.932 231.984,177.684 231.021,182.224 230.658 C 188.803 230.131,191.896 229.421,192.603 228.277 C 192.723 228.083,193.295 227.820,193.874 227.693 C 194.454 227.566,195.751 226.758,196.758 225.899 C 197.765 225.039,198.926 224.251,199.338 224.148 C 199.750 224.045,200.258 223.585,200.467 223.127 C 200.675 222.670,201.366 222.027,202.001 221.700 C 202.636 221.373,203.341 220.843,203.567 220.522 C 206.498 216.374,216.851 216.566,220.055 220.828 C 221.203 222.355,223.486 225.066,226.247 228.179 C 227.378 229.455,228.920 231.209,229.673 232.077 C 230.425 232.945,231.314 233.931,231.647 234.268 C 231.980 234.606,232.447 235.079,232.684 235.320 C 235.455 238.130,237.100 239.598,238.631 240.625 C 240.049 241.576,245.631 246.893,248.244 249.782 C 251.184 253.031,253.458 256.370,254.049 258.304 C 254.384 259.401,255.002 260.723,255.423 261.242 C 255.847 261.766,256.457 263.402,256.795 264.923 C 257.226 266.865,257.696 267.995,258.412 268.811 C 258.967 269.445,259.422 269.997,259.422 270.038 C 259.432 271.543,260.625 276.191,261.145 276.746 C 262.069 277.734,263.070 280.155,264.005 283.669 C 264.433 285.276,265.135 287.301,265.566 288.168 C 265.997 289.036,266.609 291.000,266.924 292.534 C 267.497 295.314,269.880 299.746,270.794 299.731 C 271.144 299.725,273.857 297.463,277.826 293.869 C 278.791 292.996,279.934 292.119,280.368 291.921 C 280.802 291.723,281.157 291.362,281.157 291.117 C 281.157 290.873,281.725 290.205,282.419 289.633 C 283.112 289.061,284.021 288.028,284.438 287.338 C 285.584 285.439,289.892 280.873,291.674 279.667 C 292.542 279.080,293.646 278.248,294.128 277.817 C 294.610 277.387,295.572 276.854,296.265 276.632 C 296.958 276.411,297.725 275.858,297.968 275.402 C 299.461 272.613,311.627 272.509,313.560 275.268 C 313.836 275.663,314.902 276.332,315.927 276.754 C 317.387 277.356,318.786 278.515,322.373 282.093 C 326.206 285.918,327.177 286.706,328.320 286.920 C 329.922 287.221,331.639 288.046,331.639 288.516 C 331.639 289.233,333.240 289.610,337.618 289.923 C 341.271 290.184,342.597 290.428,344.191 291.135 C 345.289 291.622,347.739 292.329,349.635 292.705 C 351.531 293.082,353.313 293.581,353.593 293.814 C 353.874 294.047,354.854 294.585,355.771 295.010 C 358.252 296.159,360.579 298.006,361.240 299.351 C 361.562 300.006,362.370 301.205,363.034 302.016 C 363.698 302.827,364.242 303.632,364.243 303.805 C 364.244 304.376,367.115 309.709,367.965 310.719 C 368.424 311.264,368.799 311.858,368.799 312.038 C 368.799 312.820,375.432 318.668,376.318 318.668 C 376.921 318.668,381.655 323.388,382.297 324.629 C 382.588 325.191,383.219 326.044,383.700 326.525 C 384.181 327.007,384.575 327.630,384.575 327.911 C 384.575 328.192,385.088 328.848,385.714 329.369 C 386.341 329.890,387.179 330.844,387.576 331.489 C 387.974 332.134,388.797 333.181,389.405 333.815 C 391.336 335.830,392.989 337.848,392.989 338.189 C 392.989 338.371,393.462 338.973,394.040 339.527 C 394.619 340.081,395.092 340.712,395.092 340.929 C 395.092 341.146,395.541 341.754,396.091 342.281 C 396.640 342.807,397.456 344.019,397.904 344.975 C 398.444 346.129,398.933 346.713,399.359 346.713 C 399.979 346.713,400.000 341.079,400.000 173.357 L 400.000 0.000 200.000 0.000 L 0.000 0.000 0.000 171.604 M78.152 54.501 C 79.531 55.214,79.581 55.462,79.568 61.641 C 79.553 68.901,79.422 69.062,73.550 69.062 C 69.565 69.062,68.841 69.307,65.532 71.778 C 63.504 73.292,62.506 77.666,63.056 82.633 C 63.143 83.419,65.713 83.770,71.288 83.755 C 79.210 83.735,79.579 84.089,79.579 91.697 C 79.579 99.337,78.909 99.893,69.688 99.905 C 64.258 99.912,63.802 99.962,63.465 100.590 C 63.226 101.038,63.093 109.649,63.076 125.919 C 63.056 143.899,62.936 150.949,62.631 151.972 C 61.933 154.316,60.938 154.600,53.422 154.601 L 47.072 154.601 46.107 153.637 C 44.310 151.844,44.353 152.482,44.251 125.855 C 44.141 96.946,44.620 99.912,40.062 99.912 C 33.876 99.912,32.149 97.562,34.355 92.149 C 34.932 90.731,35.406 89.244,35.406 88.845 C 35.412 85.172,36.652 83.947,40.626 83.687 C 44.443 83.438,45.103 82.907,44.512 80.558 C 43.553 76.752,45.407 67.285,47.484 65.381 C 48.115 64.803,48.749 63.956,48.892 63.499 C 49.963 60.091,57.900 54.937,62.927 54.387 C 67.859 53.846,77.020 53.915,78.152 54.501 M215.973 83.268 C 220.664 84.119,220.154 83.881,226.658 88.244 C 227.294 88.671,227.916 89.338,228.039 89.727 C 228.220 90.296,231.332 92.108,231.540 91.766 C 232.513 90.166,234.731 88.101,236.741 86.921 C 238.128 86.107,239.696 85.144,240.225 84.781 C 241.514 83.894,249.672 82.384,253.169 82.384 C 261.122 82.384,270.864 85.836,272.793 89.338 C 273.041 89.788,273.668 90.375,274.186 90.643 C 275.029 91.079,275.900 92.250,278.659 96.655 C 280.615 99.779,281.275 110.025,281.082 134.298 C 280.905 156.526,281.687 154.725,272.227 154.706 C 261.554 154.686,262.271 156.349,262.245 131.529 C 262.222 108.983,261.998 106.555,259.692 103.937 C 256.495 100.304,249.461 98.806,245.441 100.901 C 244.681 101.297,243.412 101.796,242.621 102.009 C 241.540 102.300,240.968 102.734,240.325 103.754 C 239.853 104.501,239.308 105.211,239.112 105.332 C 237.446 106.361,237.210 109.220,237.001 130.938 C 236.858 145.836,236.685 151.886,236.383 152.569 C 235.600 154.338,234.528 154.581,227.331 154.626 L 220.766 154.668 219.848 153.750 L 218.931 152.833 218.755 132.070 L 218.580 111.306 217.762 110.000 C 217.312 109.282,216.728 107.878,216.465 106.880 C 214.866 100.818,206.068 98.173,198.974 101.620 L 195.312 103.400 194.229 105.600 C 193.634 106.810,192.835 108.195,192.454 108.677 C 191.289 110.150,191.083 113.903,191.071 133.783 C 191.061 152.436,191.048 152.769,190.334 153.678 L 189.607 154.601 182.699 154.601 C 175.020 154.601,174.591 154.491,173.670 152.288 C 172.780 150.157,172.964 87.127,173.865 85.649 C 175.007 83.776,175.512 83.668,182.797 83.738 C 190.369 83.810,190.378 83.813,191.222 86.654 C 191.977 89.195,192.056 89.239,193.467 87.892 C 198.921 82.687,205.414 81.353,215.973 83.268 M338.290 83.291 C 341.307 83.780,343.958 84.390,344.263 84.666 C 344.564 84.938,345.582 85.503,346.524 85.920 C 350.571 87.709,357.079 93.368,358.667 96.476 C 359.032 97.189,359.713 98.156,360.181 98.625 C 360.650 99.093,361.215 100.166,361.437 101.009 C 361.659 101.852,362.058 102.936,362.323 103.418 C 362.588 103.900,363.114 104.852,363.492 105.533 C 366.136 110.303,366.337 121.305,363.826 123.817 L 362.468 125.175 338.296 125.141 C 318.926 125.115,313.932 125.200,313.154 125.572 C 311.847 126.195,311.735 127.475,312.853 129.022 C 313.335 129.690,313.958 130.631,314.237 131.113 C 318.491 138.462,332.993 141.587,340.320 136.734 C 341.189 136.158,342.344 135.491,342.886 135.251 C 343.428 135.011,343.961 134.457,344.071 134.020 C 344.181 133.583,344.680 132.957,345.180 132.629 C 345.680 132.302,346.533 131.590,347.076 131.047 L 348.062 130.061 355.228 130.061 C 361.947 130.061,362.452 130.107,363.318 130.788 C 364.775 131.934,364.371 135.542,362.633 136.897 C 362.386 137.090,361.858 138.189,361.460 139.339 C 361.062 140.489,360.415 141.751,360.022 142.144 C 359.629 142.536,358.821 143.614,358.225 144.539 C 357.629 145.465,356.750 146.490,356.270 146.818 C 355.791 147.146,354.746 147.967,353.948 148.642 C 352.264 150.066,352.115 150.160,347.940 152.428 C 345.358 153.830,344.149 154.252,341.280 154.753 C 339.351 155.089,336.883 155.587,335.795 155.859 C 333.230 156.501,328.243 156.492,325.730 155.842 C 324.642 155.561,322.203 155.081,320.310 154.777 C 316.141 154.107,310.626 151.515,308.317 149.139 C 307.540 148.340,306.558 147.577,306.133 147.442 C 305.708 147.307,305.099 146.754,304.780 146.214 C 304.461 145.673,303.741 144.960,303.180 144.628 C 301.616 143.705,298.107 139.030,297.429 136.965 C 297.100 135.964,296.469 134.778,296.027 134.330 C 295.113 133.403,294.970 132.860,294.484 128.484 C 294.292 126.748,293.801 124.461,293.394 123.401 C 292.393 120.792,292.383 117.089,293.371 114.856 C 293.791 113.906,294.255 111.719,294.478 109.634 C 294.945 105.267,295.050 104.876,296.049 103.769 C 296.485 103.287,297.132 102.103,297.488 101.139 C 298.238 99.110,301.755 94.595,303.450 93.486 C 304.089 93.068,304.774 92.368,304.973 91.932 C 305.173 91.495,305.769 90.943,306.297 90.705 C 306.826 90.467,307.657 89.842,308.143 89.316 C 309.538 87.808,316.771 84.133,319.018 83.791 C 320.871 83.509,326.663 82.565,328.484 82.248 C 329.720 82.033,332.058 82.282,338.290 83.291 M127.061 83.418 C 128.978 83.821,130.793 84.361,131.093 84.619 C 131.779 85.209,135.206 86.783,136.372 87.045 C 137.098 87.208,137.414 87.004,138.216 85.854 C 139.545 83.949,139.969 83.850,147.206 83.745 C 153.374 83.656,153.597 83.678,154.350 84.431 L 155.127 85.208 155.231 132.437 C 155.338 181.252,155.321 181.886,153.927 182.632 C 152.908 183.178,145.967 183.443,142.724 183.061 C 137.471 182.441,137.382 182.140,137.431 165.118 C 137.449 158.466,137.456 152.669,137.444 152.235 C 137.410 150.942,132.612 151.974,131.686 153.473 C 131.568 153.664,130.484 154.064,129.277 154.362 C 128.069 154.660,125.741 155.232,124.102 155.634 C 121.006 156.392,118.041 156.522,115.337 156.018 C 104.486 153.996,105.570 154.343,100.759 151.360 C 96.966 149.008,95.400 147.878,94.190 146.622 C 93.770 146.185,92.914 145.328,92.287 144.717 C 91.661 144.105,91.148 143.410,91.148 143.173 C 91.148 142.936,90.679 142.299,90.106 141.758 C 89.534 141.217,88.726 139.988,88.312 139.026 C 87.899 138.064,87.118 136.864,86.577 136.358 C 85.988 135.809,85.493 134.888,85.343 134.065 C 85.205 133.309,84.737 131.980,84.302 131.112 C 81.308 125.135,81.304 113.566,84.293 107.456 C 84.786 106.450,85.188 105.360,85.188 105.034 C 85.188 104.123,86.450 101.890,87.231 101.419 C 87.615 101.187,88.038 100.505,88.170 99.903 C 88.303 99.301,89.092 98.042,89.924 97.105 C 90.756 96.168,91.532 95.101,91.649 94.733 C 91.765 94.366,92.235 93.865,92.693 93.620 C 93.150 93.375,93.693 92.805,93.899 92.353 C 94.105 91.902,94.718 91.302,95.261 91.021 C 95.805 90.740,96.825 89.983,97.530 89.338 C 103.684 83.700,116.332 81.165,127.061 83.418 M324.066 99.550 C 323.275 99.720,322.073 100.146,321.396 100.499 C 317.869 102.333,316.564 103.106,316.564 103.363 C 316.564 103.520,315.706 104.767,314.656 106.135 L 312.748 108.622 313.623 109.196 C 314.662 109.876,344.802 110.025,346.053 109.356 C 346.898 108.904,346.899 108.100,346.056 107.648 C 345.694 107.455,344.565 106.269,343.545 105.012 C 342.526 103.756,341.363 102.628,340.960 102.507 C 340.557 102.385,339.755 101.932,339.176 101.501 C 336.681 99.642,335.940 99.456,330.587 99.346 C 327.791 99.289,324.857 99.381,324.066 99.550 M115.513 100.464 C 114.741 100.775,113.304 101.315,112.318 101.664 C 109.069 102.814,108.648 103.130,104.364 107.631 C 103.458 108.583,103.092 109.382,102.755 111.137 C 102.516 112.387,102.016 114.687,101.645 116.248 C 100.981 119.044,100.981 119.126,101.639 121.682 C 102.007 123.109,102.500 125.496,102.734 126.985 C 103.072 129.128,103.301 129.738,103.835 129.907 C 104.206 130.025,104.755 130.637,105.056 131.266 C 105.356 131.896,106.056 132.680,106.611 133.008 C 107.166 133.335,107.771 133.886,107.955 134.231 C 108.140 134.576,109.285 135.288,110.500 135.815 C 111.714 136.341,113.024 136.911,113.409 137.081 C 120.061 140.020,131.316 136.859,135.176 130.967 C 136.976 128.218,137.354 127.415,137.555 125.907 C 137.675 125.011,138.043 123.219,138.373 121.926 C 138.896 119.876,138.916 119.269,138.528 117.193 C 138.283 115.883,137.891 113.783,137.657 112.526 C 136.861 108.248,131.936 102.600,128.396 101.906 C 127.770 101.783,126.507 101.338,125.592 100.917 C 123.345 99.884,117.592 99.626,115.513 100.464 " stroke="none" fill="#24449b" fill-rule="evenodd"></path><path id="path2" d="M62.927 54.387 C 57.900 54.937,49.963 60.091,48.892 63.499 C 48.749 63.956,48.115 64.803,47.484 65.381 C 45.407 67.285,43.553 76.752,44.512 80.558 C 45.103 82.907,44.443 83.438,40.626 83.687 C 36.652 83.947,35.412 85.172,35.406 88.845 C 35.406 89.244,34.932 90.731,34.355 92.149 C 32.149 97.562,33.876 99.912,40.062 99.912 C 44.620 99.912,44.141 96.946,44.251 125.855 C 44.353 152.482,44.310 151.844,46.107 153.637 L 47.072 154.601 53.422 154.601 C 60.938 154.600,61.933 154.316,62.631 151.972 C 62.936 150.949,63.056 143.899,63.076 125.919 C 63.093 109.649,63.226 101.038,63.465 100.590 C 63.802 99.962,64.258 99.912,69.688 99.905 C 78.909 99.893,79.579 99.337,79.579 91.697 C 79.579 84.089,79.210 83.735,71.288 83.755 C 65.713 83.770,63.143 83.419,63.056 82.633 C 62.506 77.666,63.504 73.292,65.532 71.778 C 68.841 69.307,69.565 69.062,73.550 69.062 C 79.422 69.062,79.553 68.901,79.568 61.641 C 79.581 55.462,79.531 55.214,78.152 54.501 C 77.020 53.915,67.859 53.846,62.927 54.387 M75.481 54.909 C 78.341 55.301,78.528 55.703,78.528 61.478 C 78.528 68.061,78.656 67.919,72.355 68.346 C 64.924 68.849,63.047 70.385,62.058 76.775 C 60.929 84.069,61.446 84.592,70.020 84.838 L 76.133 85.013 77.155 86.158 C 78.164 87.288,78.177 87.356,78.177 91.527 C 78.177 98.056,77.616 98.490,69.177 98.502 L 63.858 98.510 62.779 99.589 L 61.700 100.667 61.700 125.479 L 61.700 150.291 60.901 151.477 C 59.603 153.402,58.977 153.558,52.936 153.461 L 47.502 153.374 46.713 151.810 L 45.925 150.246 45.925 125.466 L 45.925 100.686 44.685 99.598 C 43.510 98.566,43.295 98.510,40.504 98.510 C 37.096 98.510,34.686 97.038,35.206 95.273 C 35.335 94.836,35.671 93.059,35.954 91.323 C 36.939 85.273,37.002 85.191,40.937 84.845 C 43.235 84.643,44.024 84.416,44.990 83.679 L 46.189 82.765 46.011 79.650 C 45.475 70.244,48.130 64.026,54.771 59.132 C 59.557 55.605,67.999 53.884,75.481 54.909 M203.155 83.050 C 198.310 84.043,196.610 84.893,193.467 87.892 C 192.056 89.239,191.977 89.195,191.222 86.654 C 190.378 83.813,190.369 83.810,182.797 83.738 C 175.512 83.668,175.007 83.776,173.865 85.649 C 172.964 87.127,172.780 150.157,173.670 152.288 C 174.591 154.491,175.020 154.601,182.699 154.601 L 189.607 154.601 190.334 153.678 C 191.048 152.769,191.061 152.436,191.071 133.783 C 191.083 113.903,191.289 110.150,192.454 108.677 C 192.835 108.195,193.634 106.810,194.229 105.600 L 195.312 103.400 198.974 101.620 C 206.068 98.173,214.866 100.818,216.465 106.880 C 216.728 107.878,217.312 109.282,217.762 110.000 L 218.580 111.306 218.755 132.070 L 218.931 152.833 219.848 153.750 L 220.766 154.668 227.331 154.626 C 234.528 154.581,235.600 154.338,236.383 152.569 C 236.685 151.886,236.858 145.836,237.001 130.938 C 237.210 109.220,237.446 106.361,239.112 105.332 C 239.308 105.211,239.853 104.501,240.325 103.754 C 240.968 102.734,241.540 102.300,242.621 102.009 C 243.412 101.796,244.681 101.297,245.441 100.901 C 249.461 98.806,256.495 100.304,259.692 103.937 C 261.998 106.555,262.222 108.983,262.245 131.529 C 262.271 156.349,261.554 154.686,272.227 154.706 C 281.687 154.725,280.905 156.526,281.082 134.298 C 281.275 110.025,280.615 99.779,278.659 96.655 C 275.900 92.250,275.029 91.079,274.186 90.643 C 273.668 90.375,273.041 89.788,272.793 89.338 C 270.864 85.836,261.122 82.384,253.169 82.384 C 249.672 82.384,241.514 83.894,240.225 84.781 C 239.696 85.144,238.128 86.107,236.741 86.921 C 234.731 88.101,232.513 90.166,231.540 91.766 C 231.332 92.108,228.220 90.296,228.039 89.727 C 227.916 89.338,227.294 88.671,226.658 88.244 C 220.154 83.881,220.664 84.119,215.973 83.268 C 209.094 82.020,208.249 82.006,203.155 83.050 M328.484 82.248 C 326.663 82.565,320.871 83.509,319.018 83.791 C 316.771 84.133,309.538 87.808,308.143 89.316 C 307.657 89.842,306.826 90.467,306.297 90.705 C 305.769 90.943,305.173 91.495,304.973 91.932 C 304.774 92.368,304.089 93.068,303.450 93.486 C 301.755 94.595,298.238 99.110,297.488 101.139 C 297.132 102.103,296.485 103.287,296.049 103.769 C 295.050 104.876,294.945 105.267,294.478 109.634 C 294.255 111.719,293.791 113.906,293.371 114.856 C 292.383 117.089,292.393 120.792,293.394 123.401 C 293.801 124.461,294.292 126.748,294.484 128.484 C 294.970 132.860,295.113 133.403,296.027 134.330 C 296.469 134.778,297.100 135.964,297.429 136.965 C 298.107 139.030,301.616 143.705,303.180 144.628 C 303.741 144.960,304.461 145.673,304.780 146.214 C 305.099 146.754,305.708 147.307,306.133 147.442 C 306.558 147.577,307.540 148.340,308.317 149.139 C 310.626 151.515,316.141 154.107,320.310 154.777 C 322.203 155.081,324.642 155.561,325.730 155.842 C 328.243 156.492,333.230 156.501,335.795 155.859 C 336.883 155.587,339.351 155.089,341.280 154.753 C 344.149 154.252,345.358 153.830,347.940 152.428 C 352.115 150.160,352.264 150.066,353.948 148.642 C 354.746 147.967,355.791 147.146,356.270 146.818 C 356.750 146.490,357.629 145.465,358.225 144.539 C 358.821 143.614,359.629 142.536,360.022 142.144 C 360.415 141.751,361.062 140.489,361.460 139.339 C 361.858 138.189,362.386 137.090,362.633 136.897 C 364.371 135.542,364.775 131.934,363.318 130.788 C 362.452 130.107,361.947 130.061,355.228 130.061 L 348.062 130.061 347.076 131.047 C 346.533 131.590,345.680 132.302,345.180 132.629 C 344.680 132.957,344.181 133.583,344.071 134.020 C 343.961 134.457,343.428 135.011,342.886 135.251 C 342.344 135.491,341.189 136.158,340.320 136.734 C 332.993 141.587,318.491 138.462,314.237 131.113 C 313.958 130.631,313.335 129.690,312.853 129.022 C 311.735 127.475,311.847 126.195,313.154 125.572 C 313.932 125.200,318.926 125.115,338.296 125.141 L 362.468 125.175 363.826 123.817 C 366.337 121.305,366.136 110.303,363.492 105.533 C 363.114 104.852,362.588 103.900,362.323 103.418 C 362.058 102.936,361.659 101.852,361.437 101.009 C 361.215 100.166,360.650 99.093,360.181 98.625 C 359.713 98.156,359.032 97.189,358.667 96.476 C 357.079 93.368,350.571 87.709,346.524 85.920 C 345.582 85.503,344.564 84.938,344.263 84.666 C 343.393 83.878,330.484 81.901,328.484 82.248 M111.262 83.203 C 106.554 84.076,100.151 86.936,97.530 89.338 C 96.825 89.983,95.805 90.740,95.261 91.021 C 94.718 91.302,94.105 91.902,93.899 92.353 C 93.693 92.805,93.150 93.375,92.693 93.620 C 92.235 93.865,91.765 94.366,91.649 94.733 C 91.532 95.101,90.756 96.168,89.924 97.105 C 89.092 98.042,88.303 99.301,88.170 99.903 C 88.038 100.505,87.615 101.187,87.231 101.419 C 86.450 101.890,85.188 104.123,85.188 105.034 C 85.188 105.360,84.786 106.450,84.293 107.456 C 81.304 113.566,81.308 125.135,84.302 131.112 C 84.737 131.980,85.205 133.309,85.343 134.065 C 85.493 134.888,85.988 135.809,86.577 136.358 C 87.118 136.864,87.899 138.064,88.312 139.026 C 88.726 139.988,89.534 141.217,90.106 141.758 C 90.679 142.299,91.148 142.936,91.148 143.173 C 91.148 143.410,91.661 144.105,92.287 144.717 C 92.914 145.328,93.770 146.185,94.190 146.622 C 95.400 147.878,96.966 149.008,100.759 151.360 C 105.570 154.343,104.486 153.996,115.337 156.018 C 118.041 156.522,121.006 156.392,124.102 155.634 C 125.741 155.232,128.069 154.660,129.277 154.362 C 130.484 154.064,131.568 153.664,131.686 153.473 C 132.612 151.974,137.410 150.942,137.444 152.235 C 137.456 152.669,137.449 158.466,137.431 165.118 C 137.382 182.140,137.471 182.441,142.724 183.061 C 145.967 183.443,152.908 183.178,153.927 182.632 C 155.321 181.886,155.338 181.252,155.231 132.437 L 155.127 85.208 154.350 84.431 C 153.597 83.678,153.374 83.656,147.206 83.745 C 139.969 83.850,139.545 83.949,138.216 85.854 C 137.414 87.004,137.098 87.208,136.372 87.045 C 135.206 86.783,131.779 85.209,131.093 84.619 C 128.992 82.815,117.705 82.009,111.262 83.203 M125.676 84.363 C 128.229 84.885,131.150 86.070,132.831 87.267 C 135.523 89.184,137.940 89.344,138.928 87.672 C 140.487 85.032,141.070 84.838,147.447 84.838 L 153.209 84.838 153.904 85.977 C 154.961 87.710,155.003 178.228,153.948 180.195 C 153.119 181.741,151.767 182.030,146.166 181.860 C 138.445 181.625,138.674 182.150,138.566 164.448 C 138.495 152.936,138.394 150.499,137.962 149.838 L 137.442 149.046 135.635 149.706 C 134.641 150.069,133.570 150.600,133.254 150.886 C 126.581 156.925,107.050 155.548,98.861 148.460 C 98.379 148.043,97.421 147.366,96.733 146.955 C 94.546 145.651,90.405 140.821,88.875 137.791 C 88.344 136.740,87.545 135.321,87.098 134.636 C 82.831 128.094,82.930 109.692,87.264 103.593 C 87.813 102.822,88.499 101.622,88.789 100.927 C 89.956 98.135,94.885 92.669,97.986 90.730 C 98.816 90.210,99.589 89.635,99.703 89.451 C 99.817 89.266,101.713 88.232,103.916 87.153 C 110.920 83.721,118.052 82.806,125.676 84.363 M215.673 84.347 C 219.416 85.057,223.419 87.186,226.819 90.276 C 227.493 90.889,228.809 91.925,229.743 92.579 L 231.440 93.767 232.157 92.783 C 240.625 81.158,262.908 80.486,273.285 91.543 C 279.500 98.165,279.755 99.629,279.755 128.702 C 279.755 156.065,280.553 153.489,272.043 153.570 C 263.549 153.650,264.202 155.519,263.960 130.428 C 263.744 107.982,263.707 107.624,261.211 103.996 C 256.205 96.721,243.872 96.870,238.404 104.272 C 235.769 107.839,235.812 107.441,235.598 130.237 C 235.360 155.629,236.115 153.550,227.140 153.550 C 218.915 153.550,219.680 155.853,219.459 130.412 L 219.281 109.904 217.586 106.374 L 215.891 102.844 213.029 101.069 C 204.729 95.924,196.111 98.536,191.758 107.516 C 190.569 109.969,190.381 113.363,190.370 132.620 C 190.357 155.848,191.287 153.550,181.902 153.550 C 176.212 153.550,175.741 153.393,174.920 151.234 C 174.298 149.597,174.482 87.804,175.113 86.584 C 175.993 84.882,176.709 84.710,182.604 84.791 C 189.336 84.884,189.662 85.020,190.708 88.161 C 191.507 90.565,192.248 91.082,193.051 89.796 C 194.094 88.126,199.512 85.059,202.709 84.330 C 207.023 83.345,210.418 83.350,215.673 84.347 M335.039 83.975 C 340.609 84.701,341.375 84.929,345.827 87.186 C 351.021 89.819,356.298 94.287,357.929 97.433 C 358.286 98.122,358.992 99.238,359.498 99.912 C 360.003 100.587,360.744 102.244,361.144 103.593 C 361.544 104.943,362.075 106.375,362.324 106.776 C 363.787 109.131,364.823 118.650,363.915 121.401 C 363.093 123.892,364.688 123.751,337.322 123.751 C 321.907 123.751,312.422 123.880,312.021 124.094 C 308.677 125.884,312.837 133.477,319.302 137.383 C 323.534 139.940,325.132 140.344,331.145 140.375 L 336.436 140.403 339.206 139.001 C 341.018 138.083,342.701 136.871,344.074 135.495 C 345.229 134.338,346.783 132.879,347.528 132.252 L 348.883 131.113 354.722 131.148 C 361.952 131.191,362.325 131.279,362.279 132.918 C 362.178 136.492,356.086 146.889,354.092 146.889 C 353.958 146.889,352.933 147.599,351.816 148.466 C 350.698 149.334,349.620 150.044,349.419 150.044 C 349.218 150.044,348.330 150.506,347.445 151.072 C 338.019 157.097,316.042 155.299,308.723 147.905 C 308.170 147.346,307.574 146.889,307.400 146.889 C 306.139 146.889,299.521 138.959,298.100 135.746 C 297.621 134.661,296.935 133.361,296.576 132.857 C 294.060 129.324,294.150 109.071,296.699 105.186 C 297.147 104.503,297.909 103.075,298.392 102.014 C 299.647 99.252,306.602 91.151,307.720 91.147 C 307.861 91.147,308.528 90.674,309.202 90.096 C 309.877 89.518,310.982 88.794,311.656 88.488 C 312.331 88.182,313.928 87.395,315.206 86.739 C 320.502 84.021,327.696 83.018,335.039 83.975 M325.628 97.823 C 317.538 98.767,308.166 108.773,313.549 110.719 C 315.257 111.337,346.135 111.301,346.650 110.681 C 347.647 109.480,347.746 108.400,346.958 107.331 C 344.168 103.550,343.297 102.626,341.187 101.214 C 335.955 97.713,332.681 96.999,325.628 97.823 M114.812 99.187 C 107.993 101.622,103.096 105.826,101.845 110.320 C 101.586 111.248,101.038 112.933,100.626 114.064 C 99.487 117.192,99.587 121.062,100.898 124.644 C 101.459 126.177,102.021 127.995,102.146 128.683 C 103.092 133.875,112.857 139.901,120.245 139.852 C 127.427 139.805,136.437 133.944,137.982 128.316 C 138.274 127.251,138.930 125.361,139.441 124.116 C 140.493 121.550,140.811 118.629,140.265 116.564 C 139.324 113.011,137.418 107.970,136.671 107.057 C 131.106 100.263,121.492 96.802,114.812 99.187 M336.897 100.084 C 337.572 100.432,338.598 101.070,339.176 101.501 C 339.755 101.932,340.557 102.385,340.960 102.507 C 341.363 102.628,342.526 103.756,343.545 105.012 C 344.565 106.269,345.694 107.455,346.056 107.648 C 346.899 108.100,346.898 108.904,346.053 109.356 C 344.802 110.025,314.662 109.876,313.623 109.196 L 312.748 108.622 314.656 106.135 C 315.706 104.767,316.564 103.520,316.564 103.363 C 316.564 103.106,317.869 102.333,321.396 100.499 C 324.179 99.051,334.370 98.779,336.897 100.084 M125.592 100.917 C 126.507 101.338,127.770 101.783,128.396 101.906 C 131.936 102.600,136.861 108.248,137.657 112.526 C 137.891 113.783,138.283 115.883,138.528 117.193 C 138.916 119.269,138.896 119.876,138.373 121.926 C 138.043 123.219,137.675 125.011,137.555 125.907 C 137.354 127.415,136.976 128.218,135.176 130.967 C 131.316 136.859,120.061 140.020,113.409 137.081 C 113.024 136.911,111.714 136.341,110.500 135.815 C 109.285 135.288,108.140 134.576,107.955 134.231 C 107.771 133.886,107.166 133.335,106.611 133.008 C 106.056 132.680,105.356 131.896,105.056 131.266 C 104.755 130.637,104.206 130.025,103.835 129.907 C 103.301 129.738,103.072 129.128,102.734 126.985 C 102.500 125.496,102.007 123.109,101.639 121.682 C 100.981 119.126,100.981 119.044,101.645 116.248 C 102.016 114.687,102.516 112.387,102.755 111.137 C 103.092 109.382,103.458 108.583,104.364 107.631 C 108.648 103.130,109.069 102.814,112.318 101.664 C 113.304 101.315,114.741 100.775,115.513 100.464 C 117.592 99.626,123.345 99.884,125.592 100.917 M208.796 217.723 C 207.233 218.115,203.822 219.979,203.422 220.659 C 203.275 220.910,202.636 221.380,202.001 221.705 C 201.366 222.029,200.675 222.670,200.467 223.127 C 200.258 223.585,199.750 224.045,199.338 224.148 C 198.926 224.251,197.765 225.039,196.758 225.899 C 195.751 226.758,194.454 227.566,193.874 227.693 C 193.295 227.820,192.723 228.083,192.603 228.277 C 191.896 229.421,188.803 230.131,182.224 230.658 C 177.684 231.021,173.932 231.984,172.031 233.274 C 171.346 233.740,170.205 234.395,169.496 234.732 C 168.788 235.068,168.056 235.676,167.871 236.083 C 167.685 236.490,166.971 237.208,166.284 237.679 C 164.841 238.667,157.753 245.637,153.900 249.855 C 152.454 251.438,150.719 252.995,150.044 253.316 C 149.369 253.637,148.501 254.173,148.116 254.506 C 147.730 254.840,146.705 255.490,145.837 255.951 C 143.705 257.084,140.578 259.364,140.578 259.786 C 140.578 259.974,139.953 260.378,139.189 260.684 C 138.425 260.990,137.704 261.543,137.586 261.914 C 137.469 262.285,136.746 262.908,135.981 263.298 C 133.884 264.368,128.478 270.112,127.544 272.264 C 127.303 272.817,126.549 273.829,125.867 274.514 C 124.514 275.873,120.591 281.156,119.893 282.559 C 119.653 283.041,119.128 283.796,118.727 284.236 C 118.325 284.677,117.669 285.688,117.269 286.484 C 116.522 287.966,113.942 289.416,113.643 288.520 C 113.575 288.316,112.928 287.400,112.204 286.485 C 111.480 285.569,110.483 284.178,109.987 283.393 C 109.492 282.608,108.284 281.142,107.304 280.135 C 106.323 279.129,105.521 278.153,105.521 277.967 C 105.521 277.780,104.963 277.298,104.282 276.896 C 103.584 276.485,102.825 275.646,102.547 274.980 C 102.274 274.328,101.838 273.795,101.576 273.795 C 101.315 273.795,100.521 273.263,99.811 272.614 C 97.502 270.498,93.428 270.563,90.973 272.756 C 90.587 273.100,89.585 273.564,88.745 273.787 C 87.791 274.040,86.726 274.694,85.906 275.531 C 85.185 276.266,84.295 276.966,83.928 277.084 C 83.561 277.203,82.484 278.244,81.535 279.397 C 80.586 280.550,79.172 281.916,78.393 282.431 L 76.976 283.369 71.529 282.609 C 59.551 280.938,55.033 282.915,51.680 291.293 C 51.371 292.067,50.825 292.792,50.467 292.906 C 50.109 293.019,49.725 293.400,49.614 293.752 C 49.127 295.287,40.613 304.446,38.597 305.604 C 37.710 306.114,36.539 306.895,35.994 307.340 C 35.449 307.786,34.810 308.151,34.574 308.151 C 34.023 308.151,30.449 311.030,28.208 313.280 C 21.703 319.811,15.074 327.094,15.074 327.709 C 15.074 327.914,14.619 328.449,14.063 328.897 C 13.507 329.344,12.799 330.212,12.489 330.825 C 12.180 331.438,11.649 332.030,11.310 332.140 C 10.970 332.249,10.333 332.970,9.893 333.742 C 9.454 334.513,8.973 335.145,8.826 335.145 C 8.678 335.145,6.936 336.959,4.953 339.176 C 2.722 341.671,1.092 343.208,0.674 343.208 C 0.189 343.208,0.000 343.453,0.000 344.084 C 0.000 345.550,1.197 345.138,3.223 342.974 C 7.868 338.016,8.976 336.761,10.293 334.969 C 10.860 334.198,11.761 333.094,12.294 332.515 C 12.828 331.937,14.106 330.506,15.134 329.336 C 27.937 314.757,30.013 312.799,39.131 306.700 C 41.733 304.959,48.382 298.244,49.323 296.407 C 49.619 295.828,50.226 294.961,50.672 294.479 C 51.119 293.996,51.863 292.931,52.326 292.111 C 56.587 284.570,60.378 282.572,68.275 283.705 C 77.922 285.089,78.338 285.006,81.863 280.991 C 89.853 271.890,97.596 270.557,103.243 277.308 C 104.400 278.691,105.835 280.399,106.432 281.104 C 107.028 281.808,108.402 283.567,109.485 285.013 C 113.237 290.027,113.270 290.055,115.021 289.822 C 115.922 289.702,116.757 289.351,117.026 288.980 C 117.280 288.630,118.463 286.971,119.656 285.293 C 120.848 283.615,122.296 281.580,122.875 280.770 C 123.453 279.961,124.374 278.573,124.921 277.686 C 125.469 276.799,126.358 275.600,126.898 275.022 C 127.438 274.443,128.129 273.474,128.434 272.868 C 128.739 272.262,130.768 269.998,132.943 267.836 C 138.068 262.743,138.824 262.055,139.877 261.526 C 140.359 261.284,141.385 260.629,142.156 260.071 C 142.927 259.513,145.370 257.863,147.585 256.405 C 151.028 254.139,152.935 252.446,160.740 244.733 C 171.844 233.759,173.427 232.866,183.128 232.093 C 190.639 231.494,193.988 229.958,201.719 223.567 C 203.060 222.459,203.593 222.100,207.043 219.989 C 208.811 218.908,213.212 218.494,215.600 219.184 C 216.498 219.444,219.310 222.042,221.640 224.765 C 228.243 232.482,232.919 237.315,238.037 241.708 C 244.809 247.522,250.082 253.330,252.275 257.391 C 253.702 260.032,255.888 265.109,256.245 266.608 C 256.474 267.572,257.135 269.206,257.715 270.239 C 258.297 271.276,258.991 273.279,259.265 274.713 C 259.539 276.141,260.032 277.722,260.361 278.225 C 260.898 279.044,262.127 282.426,265.943 293.584 C 269.253 303.265,272.350 302.500,284.487 289.005 C 290.329 282.510,294.712 278.449,297.327 277.108 C 297.978 276.774,298.942 276.140,299.471 275.699 C 301.536 273.976,308.327 273.651,310.703 275.161 C 311.324 275.556,313.094 276.488,314.636 277.232 C 317.139 278.439,317.870 279.044,321.424 282.851 C 323.615 285.197,325.573 287.117,325.775 287.117 C 325.977 287.117,327.576 287.822,329.329 288.685 C 332.063 290.031,333.012 290.308,336.013 290.641 C 337.937 290.855,340.422 291.344,341.536 291.730 C 342.649 292.115,345.380 292.880,347.606 293.431 C 356.195 295.555,361.690 300.012,364.083 306.796 C 365.219 310.014,369.532 315.085,374.031 318.493 C 378.087 321.564,380.324 323.963,385.634 330.938 C 388.419 334.596,389.883 336.465,391.937 338.988 C 395.145 342.927,396.484 344.705,397.558 346.450 C 398.654 348.232,400.000 348.763,400.000 347.415 C 400.000 346.969,399.766 346.713,399.359 346.713 C 398.933 346.713,398.444 346.129,397.904 344.975 C 397.456 344.019,396.640 342.807,396.091 342.281 C 395.541 341.754,395.092 341.146,395.092 340.929 C 395.092 340.712,394.619 340.081,394.040 339.527 C 393.462 338.973,392.989 338.371,392.989 338.189 C 392.989 337.848,391.336 335.830,389.405 333.815 C 388.797 333.181,387.974 332.134,387.576 331.489 C 387.179 330.844,386.341 329.890,385.714 329.369 C 385.088 328.848,384.575 328.192,384.575 327.911 C 384.575 327.630,384.181 327.007,383.700 326.525 C 383.219 326.044,382.588 325.191,382.297 324.629 C 381.655 323.388,376.921 318.668,376.318 318.668 C 375.432 318.668,368.799 312.820,368.799 312.038 C 368.799 311.858,368.424 311.264,367.965 310.719 C 367.115 309.709,364.244 304.376,364.243 303.805 C 364.242 303.632,363.698 302.827,363.034 302.016 C 362.370 301.205,361.562 300.006,361.240 299.351 C 360.579 298.006,358.252 296.159,355.771 295.010 C 354.854 294.585,353.874 294.047,353.593 293.814 C 353.313 293.581,351.531 293.082,349.635 292.705 C 347.739 292.329,345.289 291.622,344.191 291.135 C 342.597 290.428,341.271 290.184,337.618 289.923 C 333.240 289.610,331.639 289.233,331.639 288.516 C 331.639 288.046,329.922 287.221,328.320 286.920 C 327.177 286.706,326.206 285.918,322.373 282.093 C 318.786 278.515,317.387 277.356,315.927 276.754 C 314.902 276.332,313.836 275.663,313.560 275.268 C 311.627 272.509,299.461 272.613,297.968 275.402 C 297.725 275.858,296.958 276.411,296.265 276.632 C 295.572 276.854,294.610 277.387,294.128 277.817 C 293.646 278.248,292.542 279.080,291.674 279.667 C 289.892 280.873,285.584 285.439,284.438 287.338 C 284.021 288.028,283.112 289.061,282.419 289.633 C 281.725 290.205,281.157 290.873,281.157 291.117 C 281.157 291.362,280.802 291.723,280.368 291.921 C 279.934 292.119,278.791 292.996,277.826 293.869 C 273.857 297.463,271.144 299.725,270.794 299.731 C 269.880 299.746,267.497 295.314,266.924 292.534 C 266.609 291.000,265.997 289.036,265.566 288.168 C 265.135 287.301,264.433 285.276,264.005 283.669 C 263.070 280.155,262.069 277.734,261.145 276.746 C 260.625 276.191,259.432 271.543,259.422 270.038 C 259.422 269.997,258.967 269.445,258.412 268.811 C 257.696 267.995,257.226 266.865,256.795 264.923 C 256.457 263.402,255.847 261.766,255.423 261.242 C 255.002 260.723,254.384 259.401,254.049 258.304 C 253.458 256.370,251.184 253.031,248.244 249.782 C 245.631 246.893,240.049 241.576,238.631 240.625 C 237.260 239.705,236.219 238.806,234.008 236.635 C 233.165 235.806,232.788 235.428,231.559 234.181 C 231.274 233.891,230.425 232.945,229.673 232.077 C 228.920 231.209,227.378 229.455,226.247 228.179 C 223.486 225.066,221.203 222.355,220.055 220.828 C 218.006 218.102,212.898 216.693,208.796 217.723 " stroke="none" fill="#6c83ba" fill-rule="evenodd"></path><path id="path3" d="M65.031 55.097 C 57.686 55.826,50.887 60.859,47.347 68.187 C 46.517 69.905,45.907 74.508,45.977 78.518 C 46.025 81.291,46.048 81.184,46.297 77.042 C 47.198 62.069,57.121 54.060,73.438 55.136 C 78.092 55.443,78.194 55.582,78.142 61.460 C 78.098 66.460,77.937 67.026,76.410 67.553 C 75.321 67.928,75.289 67.973,76.100 67.991 C 78.115 68.035,78.528 66.921,78.528 61.428 C 78.528 54.353,77.478 53.861,65.031 55.097 M67.612 68.496 C 63.617 69.572,61.839 72.759,61.211 79.968 L 60.979 82.635 62.392 83.912 L 63.806 85.188 69.256 85.188 C 77.371 85.188,77.826 85.546,77.826 91.922 L 77.826 96.046 76.396 96.993 C 74.993 97.921,74.865 97.939,69.661 97.904 C 60.525 97.842,61.404 94.964,61.277 125.380 C 61.184 147.846,61.119 150.298,60.593 151.040 C 59.320 152.838,58.697 153.016,53.245 153.143 L 48.120 153.261 47.285 152.091 L 46.450 150.920 46.275 125.504 C 46.179 111.525,45.972 99.889,45.815 99.647 C 45.200 98.698,43.243 98.068,40.344 97.887 C 36.714 97.660,35.190 96.634,35.723 94.775 C 35.883 94.219,36.208 92.347,36.447 90.616 C 37.067 86.116,37.968 85.196,41.763 85.190 C 44.241 85.187,47.042 83.279,46.511 81.957 C 46.395 81.668,46.321 81.720,46.303 82.103 C 46.242 83.417,43.970 84.578,40.937 84.845 C 37.002 85.191,36.939 85.273,35.954 91.323 C 35.671 93.059,35.335 94.836,35.206 95.273 C 34.686 97.038,37.096 98.510,40.504 98.510 C 43.295 98.510,43.510 98.566,44.685 99.598 L 45.925 100.686 45.925 125.466 L 45.925 150.246 46.713 151.810 L 47.502 153.374 52.936 153.461 C 58.977 153.558,59.603 153.402,60.901 151.477 L 61.700 150.291 61.700 125.479 L 61.700 100.667 62.779 99.589 L 63.858 98.510 69.177 98.502 C 77.616 98.490,78.177 98.056,78.177 91.527 C 78.177 87.356,78.164 87.288,77.155 86.158 L 76.133 85.013 70.020 84.838 C 61.446 84.592,60.929 84.069,62.058 76.775 C 63.016 70.590,65.067 68.797,71.691 68.355 L 75.197 68.120 72.217 68.089 C 70.578 68.072,68.506 68.255,67.612 68.496 M115.337 83.798 C 109.972 84.474,100.709 87.822,99.703 89.451 C 99.589 89.635,98.816 90.210,97.986 90.730 C 94.885 92.669,89.956 98.135,88.789 100.927 C 88.499 101.622,87.813 102.822,87.264 103.593 C 82.930 109.692,82.831 128.094,87.098 134.636 C 87.545 135.321,88.344 136.740,88.875 137.791 C 90.405 140.821,94.546 145.651,96.733 146.955 C 97.421 147.366,98.379 148.043,98.861 148.460 C 107.050 155.548,126.581 156.925,133.254 150.886 C 133.570 150.600,134.641 150.069,135.635 149.706 L 137.442 149.046 137.962 149.838 C 138.394 150.499,138.495 152.936,138.566 164.448 C 138.674 182.150,138.445 181.625,146.166 181.860 C 151.767 182.030,153.119 181.741,153.948 180.195 C 155.003 178.228,154.961 87.710,153.904 85.977 L 153.209 84.838 147.447 84.838 C 141.070 84.838,140.487 85.032,138.928 87.672 C 137.940 89.344,135.523 89.184,132.831 87.267 C 129.060 84.582,121.314 83.046,115.337 83.798 M206.135 83.667 C 203.661 83.992,200.474 84.850,199.059 85.572 C 196.900 86.673,193.515 89.053,193.051 89.796 C 192.248 91.082,191.507 90.565,190.708 88.161 C 189.662 85.020,189.336 84.884,182.604 84.791 C 176.709 84.710,175.993 84.882,175.113 86.584 C 174.482 87.804,174.298 149.597,174.920 151.234 C 175.741 153.393,176.212 153.550,181.902 153.550 C 191.290 153.550,190.380 155.765,190.278 133.146 L 190.196 115.162 190.015 133.450 C 189.915 143.509,189.755 151.811,189.658 151.898 C 188.339 153.100,181.194 153.732,177.434 152.980 C 174.794 152.452,174.934 154.358,174.936 118.977 L 174.938 87.467 175.779 86.415 L 176.620 85.364 182.175 85.364 C 188.977 85.364,189.483 85.547,190.422 88.344 C 191.356 91.125,191.942 91.441,193.497 89.999 C 200.028 83.941,212.378 82.125,219.807 86.131 C 222.402 87.531,225.136 89.328,226.274 90.384 C 227.412 91.440,230.896 93.953,231.221 93.953 C 231.328 93.953,232.401 92.967,233.607 91.762 C 248.448 76.929,276.300 84.576,279.024 104.232 C 279.645 108.713,279.540 150.166,278.904 151.395 C 277.767 153.594,268.445 154.169,266.069 152.186 L 264.855 151.173 264.652 131.240 C 264.431 109.662,264.373 108.988,262.412 105.252 C 257.647 96.172,244.442 95.552,238.015 104.105 C 235.415 107.565,235.463 107.120,235.249 129.886 C 235.099 145.753,234.956 150.396,234.596 151.027 C 232.781 154.209,221.175 154.214,220.175 151.033 L 219.810 149.869 219.991 151.091 C 220.310 153.229,220.664 153.361,226.392 153.490 C 236.179 153.710,235.359 155.783,235.598 130.237 C 235.812 107.441,235.769 107.839,238.404 104.272 C 243.872 96.870,256.205 96.721,261.211 103.996 C 263.707 107.624,263.744 107.982,263.960 130.428 C 264.202 155.519,263.549 153.650,272.043 153.570 C 280.553 153.489,279.755 156.065,279.755 128.702 C 279.755 99.629,279.500 98.165,273.285 91.543 C 262.908 80.486,240.625 81.158,232.157 92.783 L 231.440 93.767 229.743 92.579 C 228.809 91.925,227.493 90.889,226.819 90.276 C 225.374 88.963,221.904 86.609,219.929 85.601 C 217.453 84.338,209.505 83.223,206.135 83.667 M324.838 83.989 C 320.270 84.699,317.815 85.400,315.206 86.739 C 313.928 87.395,312.331 88.182,311.656 88.488 C 310.982 88.794,309.877 89.518,309.202 90.096 C 308.528 90.674,307.861 91.147,307.720 91.147 C 306.602 91.151,299.647 99.252,298.392 102.014 C 297.909 103.075,297.147 104.502,296.700 105.184 C 295.235 107.416,294.061 118.534,294.776 123.401 C 295.062 125.352,295.084 125.100,294.928 121.648 C 294.376 109.435,297.048 102.304,305.406 93.690 C 306.575 92.485,307.649 91.499,307.793 91.499 C 307.937 91.499,308.668 91.011,309.417 90.414 C 310.167 89.818,312.396 88.568,314.371 87.635 C 333.081 78.805,355.120 86.955,361.318 104.996 C 363.534 111.447,363.598 111.771,363.658 116.788 C 363.744 123.857,366.967 123.046,338.684 123.071 C 309.896 123.096,310.414 123.037,310.442 126.305 C 310.503 133.218,319.935 140.381,329.567 140.831 C 337.262 141.190,340.132 140.052,345.978 134.323 L 348.895 131.464 354.442 131.464 C 361.493 131.464,361.912 131.603,361.590 133.829 C 360.981 138.031,357.653 143.719,354.416 146.087 C 353.554 146.718,352.217 147.691,351.446 148.250 C 342.108 155.011,326.168 156.311,315.337 151.193 C 311.966 149.600,310.820 148.940,308.151 147.053 C 304.854 144.722,299.986 138.873,298.461 135.409 C 297.972 134.299,297.328 133.118,297.028 132.784 C 296.729 132.450,296.271 131.346,296.011 130.330 L 295.537 128.484 295.742 130.230 C 295.855 131.190,296.236 132.380,296.588 132.874 C 296.940 133.369,297.621 134.661,298.100 135.746 C 299.521 138.959,306.139 146.889,307.400 146.889 C 307.574 146.889,308.170 147.346,308.723 147.905 C 316.042 155.299,338.019 157.097,347.445 151.072 C 348.330 150.506,349.218 150.044,349.419 150.044 C 349.620 150.044,350.698 149.334,351.816 148.466 C 352.933 147.599,353.958 146.889,354.092 146.889 C 356.086 146.889,362.178 136.492,362.279 132.918 C 362.325 131.279,361.952 131.191,354.722 131.148 L 348.883 131.113 347.528 132.252 C 346.783 132.879,345.229 134.338,344.074 135.495 C 342.701 136.871,341.018 138.083,339.206 139.001 L 336.436 140.403 331.145 140.375 C 325.132 140.344,323.534 139.940,319.302 137.383 C 312.837 133.477,308.677 125.884,312.021 124.094 C 312.422 123.880,321.907 123.751,337.322 123.751 C 364.688 123.751,363.093 123.892,363.915 121.401 C 364.823 118.650,363.787 109.131,362.324 106.776 C 362.075 106.375,361.544 104.943,361.144 103.593 C 360.744 102.244,360.003 100.587,359.498 99.912 C 358.992 99.238,358.286 98.122,357.929 97.433 C 355.746 93.222,346.219 86.327,340.578 84.875 C 335.678 83.614,329.490 83.265,324.838 83.989 M125.035 84.662 C 127.035 85.045,129.042 85.819,132.410 87.509 C 137.745 90.185,138.387 90.227,139.537 87.974 C 140.797 85.504,141.721 85.191,147.777 85.190 L 153.048 85.188 153.649 86.207 C 154.391 87.463,154.598 177.340,153.863 179.447 C 153.296 181.073,152.683 181.245,147.424 181.245 C 138.780 181.245,139.169 182.035,139.074 164.253 C 138.983 147.186,139.019 147.293,134.268 149.880 C 127.689 153.462,124.844 154.251,118.500 154.251 C 112.433 154.251,107.029 152.993,103.325 150.719 C 102.406 150.155,101.518 149.693,101.351 149.693 C 99.459 149.693,90.507 140.746,89.167 137.515 C 88.866 136.790,88.094 135.329,87.452 134.268 C 83.405 127.581,83.475 110.275,87.577 103.867 C 88.167 102.945,88.803 101.784,88.991 101.287 C 89.925 98.814,93.832 94.543,98.955 90.396 C 104.745 85.708,116.729 83.074,125.035 84.662 M324.679 97.513 C 316.827 98.637,307.831 109.193,313.026 111.188 C 313.741 111.463,334.217 111.660,345.390 111.500 C 346.688 111.481,347.766 110.327,347.765 108.957 C 347.764 108.706,347.488 109.053,347.151 109.728 L 346.538 110.955 330.762 111.058 C 309.582 111.195,309.010 110.963,314.281 104.361 C 320.507 96.562,332.193 95.195,341.187 101.214 C 343.301 102.628,344.187 103.569,346.976 107.358 C 347.410 107.948,347.765 108.272,347.765 108.079 C 347.765 107.887,347.289 107.114,346.708 106.362 C 346.127 105.611,345.324 104.485,344.924 103.861 C 344.139 102.638,340.677 100.067,337.958 98.690 C 335.050 97.216,329.926 96.762,324.679 97.513 M116.740 98.159 C 111.118 99.114,102.018 105.723,102.018 108.852 C 102.018 109.045,102.311 108.723,102.668 108.138 C 109.182 97.455,124.927 95.461,133.918 104.180 C 136.966 107.136,137.422 107.846,138.695 111.613 C 140.968 118.343,141.075 120.130,139.441 124.116 C 138.930 125.361,138.274 127.251,137.982 128.316 C 136.437 133.944,127.427 139.805,120.245 139.852 C 113.588 139.896,105.171 135.208,102.625 130.038 C 102.296 129.372,102.028 129.100,102.024 129.430 C 102.015 130.068,104.581 133.272,106.796 135.388 C 116.027 144.207,135.424 139.766,138.481 128.133 C 138.735 127.169,139.349 125.513,139.846 124.452 C 141.176 121.614,141.156 116.827,139.802 113.585 C 139.278 112.331,138.681 110.637,138.474 109.819 C 136.775 103.088,124.979 96.760,116.740 98.159 M201.734 98.278 C 194.927 100.520,190.263 106.175,190.412 112.007 C 190.441 113.123,190.506 112.965,190.732 111.233 C 192.143 100.390,203.547 95.192,213.029 101.069 L 215.891 102.844 217.586 106.374 L 219.281 109.904 219.472 129.886 L 219.662 149.869 219.647 129.711 L 219.632 109.553 217.952 106.128 C 214.914 99.933,207.542 96.365,201.734 98.278 M101.229 111.049 C 100.918 111.962,100.398 113.418,100.074 114.286 C 99.123 116.831,99.256 121.630,100.356 124.452 C 100.844 125.706,101.405 127.204,101.602 127.783 C 101.799 128.361,101.973 128.569,101.988 128.245 C 102.003 127.921,101.535 126.350,100.947 124.755 C 99.585 121.062,99.470 117.242,100.625 114.064 C 101.637 111.279,102.094 109.690,101.931 109.527 C 101.856 109.452,101.540 110.137,101.229 111.049 M295.268 127.082 C 295.272 127.853,295.344 128.127,295.428 127.691 C 295.511 127.255,295.508 126.624,295.421 126.289 C 295.333 125.953,295.264 126.310,295.268 127.082 M208.981 219.085 C 208.329 219.251,207.101 219.876,206.254 220.474 C 205.406 221.071,204.589 221.560,204.439 221.560 C 204.288 221.560,203.370 222.230,202.399 223.050 C 194.621 229.614,190.610 231.496,183.128 232.093 C 173.427 232.866,171.844 233.759,160.740 244.733 C 152.935 252.446,151.028 254.139,147.585 256.405 C 145.370 257.863,142.927 259.513,142.156 260.071 C 141.385 260.629,140.359 261.284,139.877 261.526 C 138.824 262.055,138.068 262.743,132.943 267.836 C 130.768 269.998,128.739 272.262,128.434 272.868 C 128.129 273.474,127.438 274.443,126.898 275.022 C 126.358 275.600,125.469 276.799,124.921 277.686 C 124.374 278.573,123.453 279.961,122.875 280.770 C 122.296 281.580,120.848 283.615,119.656 285.293 C 118.463 286.971,117.280 288.630,117.026 288.980 C 116.757 289.351,115.922 289.702,115.021 289.822 C 113.270 290.055,113.237 290.027,109.485 285.013 C 108.402 283.567,107.028 281.808,106.432 281.104 C 105.835 280.399,104.400 278.691,103.243 277.308 C 97.596 270.557,89.853 271.890,81.863 280.991 C 78.338 285.006,77.922 285.089,68.275 283.705 C 60.378 282.572,56.587 284.570,52.326 292.111 C 51.863 292.931,51.119 293.996,50.672 294.479 C 50.226 294.961,49.619 295.828,49.323 296.407 C 48.382 298.244,41.733 304.959,39.131 306.700 C 30.013 312.799,27.937 314.757,15.134 329.336 C 14.106 330.506,12.828 331.937,12.294 332.515 C 11.761 333.094,10.860 334.198,10.293 334.969 C 9.276 336.352,8.195 337.621,6.135 339.850 C 2.220 344.086,1.287 344.961,0.681 344.961 C 0.307 344.961,0.000 345.118,0.000 345.311 C 0.000 346.928,2.821 344.411,8.414 337.802 C 9.860 336.093,12.936 332.568,15.250 329.969 C 17.564 327.369,20.403 324.123,21.560 322.756 C 26.087 317.405,31.287 312.617,36.429 309.066 C 39.699 306.808,42.597 304.447,44.745 302.292 C 47.792 299.235,48.890 297.829,53.307 291.331 C 58.363 283.891,60.172 283.177,70.653 284.484 C 78.047 285.407,78.916 285.158,82.383 281.129 C 87.745 274.899,93.654 272.353,98.685 274.105 C 99.842 274.507,101.025 275.178,101.315 275.595 C 101.604 276.012,102.325 276.842,102.918 277.440 C 103.510 278.038,104.373 279.080,104.835 279.755 C 105.927 281.347,108.159 284.161,111.022 287.555 C 114.853 292.094,116.405 291.354,122.552 282.059 C 128.068 273.718,129.390 272.006,133.940 267.309 C 136.854 264.301,139.196 262.397,142.857 260.059 C 151.481 254.553,151.508 254.531,159.163 246.840 C 170.875 235.075,173.313 233.519,181.245 232.741 C 191.114 231.774,193.344 230.893,200.175 225.262 C 201.236 224.387,202.734 223.251,203.506 222.736 C 204.277 222.221,205.562 221.353,206.362 220.808 C 210.781 217.792,216.716 218.893,219.982 223.336 C 223.219 227.737,233.814 238.825,238.738 242.964 C 242.793 246.373,245.102 248.545,246.525 250.289 C 248.855 253.144,252.280 258.165,252.755 259.422 C 253.009 260.096,253.676 261.472,254.235 262.478 C 254.795 263.483,255.570 265.455,255.957 266.860 C 256.345 268.264,257.048 270.075,257.520 270.884 C 257.992 271.693,258.611 273.271,258.897 274.390 L 259.416 276.424 259.228 274.671 C 259.122 273.684,258.516 271.901,257.843 270.589 C 257.184 269.308,256.462 267.494,256.237 266.557 C 255.886 265.098,253.677 259.985,252.275 257.391 C 250.082 253.330,244.809 247.522,238.037 241.708 C 232.919 237.315,228.305 232.547,221.640 224.767 C 219.842 222.668,217.335 220.174,216.401 219.556 C 215.481 218.946,210.712 218.644,208.981 219.085 M301.743 274.621 C 300.821 274.881,299.717 275.414,299.289 275.806 C 298.860 276.197,297.978 276.787,297.327 277.116 C 294.735 278.427,290.345 282.492,284.487 289.005 C 272.350 302.500,269.253 303.265,265.943 293.584 C 262.525 283.590,260.883 279.093,260.190 277.832 C 259.104 275.856,259.236 276.788,260.419 279.443 C 260.968 280.675,261.623 282.472,261.876 283.436 C 262.128 284.400,262.961 286.766,263.726 288.694 C 264.492 290.622,265.478 293.352,265.918 294.760 C 268.549 303.173,272.533 302.564,281.855 292.324 C 287.601 286.011,295.557 278.319,297.076 277.608 C 297.865 277.239,299.286 276.427,300.235 275.804 C 302.833 274.099,308.478 274.088,311.139 275.783 C 312.098 276.395,313.755 277.277,314.819 277.744 C 316.370 278.425,317.544 279.435,320.723 282.827 C 324.082 286.412,324.994 287.182,326.675 287.850 C 327.766 288.283,329.053 288.905,329.535 289.231 C 330.721 290.033,332.897 290.711,333.652 290.514 C 334.072 290.404,333.988 290.340,333.389 290.312 C 332.906 290.290,331.092 289.563,329.358 288.698 C 327.624 287.832,326.026 287.122,325.806 287.120 C 325.587 287.118,323.615 285.197,321.424 282.851 C 317.870 279.044,317.139 278.439,314.636 277.232 C 313.094 276.488,311.309 275.548,310.670 275.142 C 309.186 274.201,304.251 273.913,301.743 274.621 M335.408 290.870 C 335.841 290.953,336.551 290.953,336.985 290.870 C 337.419 290.786,337.064 290.718,336.196 290.718 C 335.329 290.718,334.974 290.786,335.408 290.870 M338.475 291.215 C 338.861 291.303,340.018 291.682,341.047 292.057 C 342.077 292.432,344.598 293.136,346.650 293.620 C 353.066 295.136,359.403 298.731,360.924 301.716 C 361.303 302.459,361.948 303.541,362.357 304.119 C 362.767 304.698,363.372 306.001,363.701 307.015 C 364.066 308.136,365.237 310.070,366.688 311.948 C 369.087 315.052,369.464 315.419,373.234 318.315 C 375.951 320.403,382.332 326.867,383.433 328.647 C 383.914 329.425,384.743 330.535,385.276 331.113 C 385.809 331.691,386.657 332.796,387.160 333.567 C 388.082 334.980,390.439 337.993,394.092 342.429 C 395.181 343.751,396.574 345.650,397.189 346.649 C 398.103 348.134,398.478 348.460,399.241 348.431 L 400.175 348.396 399.299 348.155 C 398.760 348.006,398.018 347.242,397.371 346.171 C 396.792 345.212,395.372 343.267,394.216 341.848 C 393.059 340.430,391.423 338.380,390.580 337.294 C 389.738 336.208,388.634 334.812,388.126 334.191 C 387.619 333.571,386.494 332.105,385.627 330.934 C 381.076 324.794,378.072 321.573,374.023 318.493 C 369.509 315.059,365.216 310.007,364.083 306.796 C 361.633 299.851,356.335 295.647,347.015 293.254 C 344.439 292.592,341.700 291.815,340.929 291.527 C 340.158 291.239,339.132 291.015,338.650 291.029 C 337.949 291.049,337.914 291.086,338.475 291.215 " stroke="none" fill="#8b9cca" fill-rule="evenodd"></path><path id="path4" d="M65.206 55.412 C 59.027 56.073,52.238 60.569,48.957 66.171 C 46.900 69.683,46.555 71.262,46.421 77.769 C 46.348 81.336,46.166 83.320,45.882 83.662 C 45.244 84.431,43.203 85.188,41.763 85.190 C 37.968 85.196,37.067 86.116,36.447 90.616 C 36.208 92.347,35.883 94.219,35.723 94.775 C 35.190 96.634,36.714 97.660,40.344 97.887 C 43.243 98.068,45.200 98.698,45.815 99.647 C 45.972 99.889,46.179 111.525,46.275 125.504 L 46.450 150.920 47.285 152.091 L 48.120 153.261 53.245 153.143 C 58.697 153.016,59.320 152.838,60.593 151.040 C 61.119 150.298,61.184 147.846,61.277 125.380 C 61.404 94.964,60.525 97.842,69.661 97.904 C 74.865 97.939,74.993 97.921,76.396 96.993 L 77.826 96.046 77.826 91.922 C 77.826 85.544,77.373 85.188,69.241 85.188 L 63.777 85.188 62.359 83.867 L 60.942 82.545 61.304 79.307 C 62.297 70.413,64.120 68.498,72.047 68.024 C 78.194 67.657,78.177 67.676,78.177 61.153 C 78.177 57.247,77.887 55.988,76.889 55.564 C 75.911 55.149,68.555 55.053,65.206 55.412 M76.280 57.328 C 77.175 58.501,77.213 58.711,77.028 61.447 C 76.668 66.767,76.157 67.309,71.511 67.309 C 63.845 67.309,60.010 71.290,59.661 79.611 L 59.520 82.973 60.692 84.308 C 62.481 86.345,63.413 86.591,69.363 86.591 C 76.127 86.591,75.929 86.443,76.200 91.693 L 76.400 95.569 75.394 96.163 C 74.568 96.651,73.442 96.757,69.103 96.757 C 58.771 96.757,59.606 94.296,59.562 124.876 C 59.543 138.236,59.420 149.549,59.290 150.016 C 58.934 151.288,57.190 151.740,52.518 151.770 C 46.711 151.808,47.327 154.923,47.325 125.514 C 47.323 94.936,47.769 97.074,41.329 96.815 C 36.594 96.625,36.593 96.623,37.308 91.475 C 37.610 89.306,37.897 87.500,37.947 87.463 C 38.421 87.109,40.710 86.587,41.858 86.571 C 46.202 86.511,47.326 84.974,47.330 79.089 C 47.332 74.450,47.798 70.787,48.559 69.416 C 48.827 68.932,49.462 67.647,49.968 66.561 C 52.550 61.023,62.234 56.144,70.710 56.110 L 75.337 56.091 76.280 57.328 M114.110 84.387 C 109.840 84.976,101.626 88.233,98.955 90.396 C 93.832 94.543,89.925 98.814,88.991 101.287 C 88.803 101.784,88.167 102.945,87.577 103.867 C 83.475 110.275,83.405 127.581,87.452 134.268 C 88.094 135.329,88.866 136.790,89.167 137.515 C 90.507 140.746,99.459 149.693,101.351 149.693 C 101.518 149.693,102.406 150.155,103.325 150.719 C 107.029 152.993,112.433 154.251,118.500 154.251 C 124.844 154.251,127.689 153.462,134.268 149.880 C 139.019 147.293,138.983 147.186,139.074 164.253 C 139.169 182.035,138.780 181.245,147.424 181.245 C 152.683 181.245,153.296 181.073,153.863 179.447 C 154.598 177.340,154.391 87.463,153.649 86.207 L 153.048 85.188 147.777 85.190 C 141.721 85.191,140.797 85.504,139.537 87.974 C 138.387 90.227,137.745 90.185,132.410 87.509 C 126.300 84.444,120.663 83.482,114.110 84.387 M203.079 84.685 C 199.864 85.390,196.387 87.318,193.497 89.999 C 191.942 91.441,191.356 91.125,190.422 88.344 C 189.483 85.547,188.977 85.364,182.175 85.364 L 176.620 85.364 175.779 86.415 L 174.938 87.467 174.936 118.977 C 174.934 154.358,174.794 152.452,177.434 152.980 C 179.880 153.469,187.135 153.221,188.430 152.603 C 190.081 151.816,189.967 153.289,190.133 130.587 C 190.292 108.744,190.292 108.739,192.394 105.376 C 198.815 95.101,212.744 95.510,217.952 106.128 L 219.632 109.553 219.807 130.237 C 219.997 152.635,219.947 152.111,221.956 152.812 C 223.973 153.515,231.720 153.307,233.019 152.515 C 235.113 151.238,235.040 151.978,235.249 129.886 C 235.463 107.120,235.415 107.565,238.015 104.105 C 244.442 95.552,257.647 96.172,262.412 105.252 C 264.373 108.988,264.431 109.662,264.652 131.240 L 264.855 151.173 266.069 152.186 C 268.517 154.229,277.943 153.568,278.985 151.281 C 279.545 150.052,279.579 108.239,279.024 104.232 C 276.300 84.576,248.448 76.929,233.607 91.762 C 232.401 92.967,231.328 93.953,231.221 93.953 C 230.896 93.953,227.412 91.440,226.274 90.384 C 225.136 89.328,222.402 87.531,219.807 86.131 C 216.513 84.355,207.958 83.615,203.079 84.685 M324.628 84.378 C 319.648 85.205,312.300 88.120,309.417 90.414 C 308.668 91.011,307.937 91.499,307.793 91.499 C 306.527 91.499,299.727 100.069,297.640 104.294 C 294.327 111.004,293.937 129.333,297.034 132.791 C 297.330 133.121,297.972 134.299,298.461 135.409 C 301.208 141.647,307.410 147.447,315.337 151.193 C 326.168 156.311,342.108 155.011,351.446 148.250 C 352.217 147.691,353.554 146.718,354.416 146.087 C 357.653 143.719,360.981 138.031,361.590 133.829 C 361.912 131.603,361.493 131.464,354.442 131.464 L 348.895 131.464 345.978 134.323 C 340.132 140.052,337.262 141.190,329.567 140.831 C 319.935 140.381,310.503 133.218,310.442 126.305 C 310.414 123.037,309.896 123.096,338.684 123.071 C 366.967 123.046,363.744 123.857,363.658 116.788 C 363.598 111.771,363.534 111.447,361.318 104.996 C 357.686 94.424,348.109 86.498,336.736 84.654 C 333.844 84.184,326.763 84.023,324.628 84.378 M124.814 86.035 C 127.267 86.472,133.464 89.119,136.021 90.821 C 138.652 92.572,140.630 91.934,141.125 89.175 C 141.573 86.677,141.791 86.591,147.632 86.591 C 152.431 86.591,152.852 86.643,153.192 87.278 C 153.697 88.223,153.524 178.606,153.016 179.114 C 152.477 179.653,148.039 179.967,144.989 179.681 C 142.332 179.432,142.273 179.405,141.226 177.970 L 140.162 176.512 140.283 162.244 C 140.367 152.293,140.288 147.860,140.022 147.595 C 138.963 146.535,137.289 146.790,134.083 148.501 C 128.895 151.270,128.592 151.401,125.679 152.133 C 119.495 153.687,110.898 152.836,105.041 150.089 C 103.473 149.355,101.690 148.556,101.077 148.315 C 100.464 148.074,99.880 147.662,99.780 147.400 C 99.679 147.138,99.049 146.640,98.379 146.293 C 97.094 145.627,93.399 141.668,91.967 139.422 C 91.500 138.690,90.896 138.006,90.625 137.902 C 90.354 137.798,89.873 136.933,89.557 135.980 C 89.240 135.026,88.624 133.817,88.187 133.293 C 85.118 129.608,85.096 108.758,88.157 105.120 C 88.608 104.585,89.262 103.391,89.612 102.468 C 89.962 101.544,90.612 100.499,91.056 100.144 C 91.500 99.790,92.086 99.080,92.359 98.567 C 92.991 97.374,97.944 92.200,98.452 92.200 C 98.663 92.200,99.354 91.748,99.988 91.197 C 101.225 90.119,103.126 89.045,103.795 89.045 C 104.021 89.045,105.426 88.494,106.917 87.821 C 111.516 85.744,119.000 84.997,124.814 86.035 M214.856 86.103 C 218.840 86.768,221.803 88.276,225.986 91.764 C 230.484 95.516,231.282 95.705,233.373 93.514 C 235.856 90.915,236.929 90.079,239.176 88.999 C 240.381 88.420,241.919 87.653,242.594 87.294 C 244.828 86.108,249.868 85.426,254.800 85.642 C 267.010 86.177,274.126 91.628,277.350 102.914 C 278.135 105.662,278.866 145.938,278.196 149.531 C 277.857 151.353,276.599 151.797,271.779 151.797 C 265.640 151.797,266.293 154.241,266.080 130.463 L 265.903 110.605 264.990 107.925 C 262.471 100.533,257.694 96.965,250.286 96.945 L 245.884 96.933 243.286 98.292 C 237.262 101.445,235.708 103.657,234.176 111.256 C 233.536 114.432,233.479 116.144,233.479 132.395 L 233.479 150.077 232.552 150.937 C 231.331 152.069,224.368 152.235,222.261 151.183 L 221.034 150.570 220.830 129.886 C 220.613 108.034,220.491 106.466,218.902 105.147 C 218.599 104.895,217.976 103.969,217.519 103.090 C 213.231 94.837,197.188 94.714,192.916 102.901 C 192.491 103.716,191.892 104.479,191.586 104.597 C 189.620 105.351,188.973 112.573,188.964 133.835 L 188.957 150.405 187.818 151.099 C 184.941 152.853,176.641 151.827,176.208 149.664 C 175.925 148.249,175.914 89.840,176.197 88.427 C 176.522 86.800,177.615 86.483,182.613 86.561 C 187.981 86.645,189.658 87.434,189.658 89.877 C 189.658 90.413,190.975 91.652,191.891 91.977 C 192.363 92.145,192.864 91.872,193.685 91.002 C 194.312 90.337,195.437 89.539,196.185 89.228 C 196.934 88.916,198.105 88.276,198.788 87.804 C 201.808 85.719,208.388 85.022,214.856 86.103 M336.474 86.054 C 340.032 86.588,342.227 87.221,343.621 88.115 C 344.069 88.402,345.081 88.807,345.872 89.015 C 346.662 89.224,347.845 89.784,348.501 90.261 C 349.157 90.738,350.285 91.529,351.008 92.019 C 351.731 92.509,352.323 93.043,352.323 93.207 C 352.323 93.370,352.835 94.067,353.462 94.754 C 355.203 96.665,356.613 98.500,357.893 100.526 C 358.533 101.538,359.178 102.366,359.327 102.366 C 359.476 102.366,359.935 103.826,360.347 105.609 C 360.760 107.393,361.326 109.293,361.605 109.832 C 362.750 112.040,363.387 119.700,362.551 121.209 L 362.114 121.998 337.566 121.998 C 312.488 121.998,310.557 122.091,309.430 123.349 C 306.787 126.299,312.486 135.748,319.133 139.436 C 327.543 144.103,341.185 142.496,345.665 136.311 C 347.787 133.382,354.036 131.812,358.808 133.010 C 360.441 133.420,360.520 136.587,358.938 138.170 C 358.591 138.517,357.922 139.556,357.452 140.479 C 356.007 143.314,352.319 146.782,348.992 148.433 C 342.533 151.639,337.342 152.948,331.113 152.941 C 325.998 152.935,317.373 151.419,316.754 150.417 C 316.658 150.262,315.590 149.767,314.381 149.318 C 312.296 148.544,308.176 146.089,307.150 145.009 C 305.300 143.063,304.391 142.019,303.747 141.104 C 300.626 136.663,299.036 134.230,299.036 133.891 C 299.036 133.673,298.484 132.444,297.810 131.161 C 295.542 126.846,295.070 111.626,297.106 108.467 C 297.367 108.063,297.993 106.750,298.498 105.550 C 299.509 103.149,300.949 100.969,303.916 97.353 C 304.992 96.041,306.188 94.508,306.573 93.946 C 306.959 93.384,307.554 92.828,307.895 92.711 C 308.236 92.594,309.262 91.928,310.174 91.231 C 311.086 90.534,312.936 89.535,314.286 89.012 C 315.635 88.489,317.528 87.746,318.493 87.361 C 322.733 85.669,330.264 85.121,336.474 86.054 M323.317 96.579 C 314.910 98.104,306.946 109.189,311.918 112.446 C 313.426 113.434,346.283 113.382,347.379 112.390 C 349.189 110.751,349.022 106.833,347.059 104.869 C 346.535 104.346,345.859 103.438,345.556 102.851 C 344.972 101.722,342.338 99.563,339.690 98.043 C 336.443 96.178,329.133 95.525,323.317 96.579 M114.812 97.102 C 109.628 98.448,102.514 104.140,101.275 107.933 C 101.047 108.631,100.413 109.999,99.867 110.973 C 97.610 114.992,97.748 124.671,100.098 127.269 C 100.383 127.584,100.853 128.637,101.141 129.608 C 103.403 137.223,113.491 142.575,123.307 141.366 C 129.996 140.542,137.761 134.496,139.174 129.010 C 139.398 128.142,139.965 126.869,140.434 126.180 C 142.361 123.355,142.396 115.596,140.498 111.934 C 140.019 111.010,139.366 109.465,139.045 108.501 C 138.506 106.878,135.161 102.552,133.576 101.427 C 128.038 97.498,120.223 95.697,114.812 97.102 M334.044 97.475 C 337.551 98.044,343.391 101.472,344.924 103.861 C 345.324 104.485,346.127 105.611,346.708 106.362 C 348.503 108.684,347.790 111.465,345.390 111.500 C 334.217 111.660,313.741 111.463,313.026 111.188 C 307.831 109.193,316.827 98.637,324.679 97.513 C 327.806 97.066,331.430 97.051,334.044 97.475 M122.787 98.143 C 129.164 99.188,137.324 105.261,138.474 109.819 C 138.681 110.637,139.278 112.331,139.802 113.585 C 141.156 116.827,141.176 121.614,139.846 124.452 C 139.349 125.513,138.735 127.169,138.481 128.133 C 136.423 135.964,123.933 142.235,115.162 139.841 C 109.481 138.291,103.012 132.886,101.839 128.711 C 101.533 127.622,100.959 125.955,100.563 125.007 C 98.995 121.256,99.048 116.746,100.708 112.454 C 101.177 111.244,101.835 109.499,102.172 108.577 C 104.478 102.257,115.096 96.883,122.787 98.143 M209.171 219.471 C 208.430 219.657,207.168 220.257,206.366 220.805 C 205.564 221.352,204.277 222.221,203.506 222.736 C 202.734 223.251,201.236 224.387,200.175 225.262 C 193.344 230.893,191.114 231.774,181.245 232.741 C 173.313 233.519,170.875 235.075,159.163 246.840 C 151.508 254.531,151.481 254.553,142.857 260.059 C 139.196 262.397,136.854 264.301,133.940 267.309 C 129.390 272.006,128.068 273.718,122.552 282.059 C 116.405 291.354,114.853 292.094,111.022 287.555 C 108.159 284.161,105.927 281.347,104.835 279.755 C 104.373 279.080,103.510 278.038,102.918 277.440 C 102.325 276.842,101.604 276.012,101.315 275.595 C 101.025 275.178,99.842 274.507,98.685 274.105 C 93.654 272.353,87.745 274.899,82.383 281.129 C 78.916 285.158,78.047 285.407,70.653 284.484 C 60.172 283.177,58.363 283.891,53.307 291.331 C 48.890 297.829,47.792 299.235,44.745 302.292 C 42.597 304.447,39.699 306.808,36.429 309.066 C 31.287 312.617,26.087 317.405,21.560 322.756 C 20.403 324.123,17.564 327.369,15.250 329.969 C 12.936 332.568,9.860 336.093,8.414 337.802 C 4.164 342.823,1.364 345.662,0.659 345.662 C 0.190 345.662,0.000 345.914,0.000 346.538 C 0.000 349.086,1.174 348.059,9.822 337.949 C 10.399 337.274,11.377 336.170,11.995 335.495 C 13.670 333.666,20.255 326.138,22.261 323.760 C 23.225 322.617,24.724 320.939,25.592 320.033 C 26.459 319.126,27.347 318.172,27.564 317.913 C 27.782 317.653,28.278 317.181,28.667 316.863 C 29.055 316.545,29.509 316.071,29.674 315.810 C 29.839 315.549,30.888 314.626,32.005 313.759 C 33.897 312.290,34.834 311.637,37.894 309.656 C 40.699 307.840,42.706 306.255,44.363 304.543 C 46.893 301.932,49.946 298.307,50.479 297.283 C 50.730 296.801,51.134 296.289,51.377 296.145 C 51.620 296.001,52.707 294.547,53.794 292.914 C 59.130 284.894,60.340 284.443,72.743 285.847 C 77.831 286.423,79.568 285.984,81.964 283.519 C 84.307 281.108,88.109 277.304,88.930 276.547 C 91.279 274.385,100.964 274.299,100.964 276.441 C 100.964 276.708,101.635 277.708,102.454 278.663 C 103.273 279.618,104.259 280.877,104.645 281.460 C 109.955 289.495,113.020 291.883,116.740 290.886 C 118.348 290.455,123.289 283.991,125.716 279.141 C 126.223 278.129,126.780 277.301,126.955 277.301 C 127.129 277.301,127.739 276.565,128.310 275.665 C 128.880 274.765,130.417 272.912,131.725 271.546 C 133.033 270.180,134.879 268.157,135.827 267.050 C 136.776 265.943,137.840 264.946,138.192 264.834 C 138.545 264.722,139.055 264.208,139.326 263.691 C 139.638 263.098,140.443 262.507,141.513 262.087 C 142.445 261.721,143.523 261.147,143.909 260.812 C 144.294 260.476,145.320 259.847,146.188 259.412 C 149.515 257.748,152.605 255.128,160.848 246.985 C 172.269 235.703,171.321 236.484,174.688 235.579 C 176.269 235.154,177.845 234.657,178.188 234.475 C 178.532 234.293,181.006 233.913,183.685 233.632 C 190.643 232.901,191.680 232.647,194.369 231.013 C 198.036 228.785,198.826 228.175,202.933 224.398 C 203.968 223.446,205.186 222.574,205.641 222.460 C 206.095 222.346,207.034 221.868,207.726 221.399 C 210.236 219.695,214.494 219.772,216.529 221.559 C 217.189 222.138,217.883 222.612,218.072 222.612 C 218.261 222.612,218.723 223.124,219.099 223.751 C 219.475 224.378,220.109 225.285,220.508 225.767 C 220.907 226.249,222.158 227.829,223.287 229.278 C 224.417 230.728,226.492 232.936,227.898 234.186 C 229.304 235.436,230.780 236.820,231.178 237.261 C 233.697 240.053,235.751 242.057,238.212 244.125 C 239.755 245.420,241.569 246.950,242.244 247.524 C 242.918 248.098,243.904 248.892,244.435 249.288 C 244.965 249.683,245.399 250.205,245.399 250.446 C 245.399 250.688,245.809 251.268,246.309 251.736 C 246.810 252.203,247.543 253.216,247.937 253.988 C 248.332 254.759,249.019 255.868,249.464 256.452 C 249.909 257.037,251.032 259.088,251.961 261.010 C 252.890 262.932,253.913 264.899,254.235 265.381 C 254.556 265.863,255.086 267.326,255.412 268.631 C 255.738 269.936,256.446 271.671,256.987 272.487 C 257.614 273.435,258.118 274.856,258.383 276.424 C 258.611 277.774,259.201 279.904,259.695 281.157 C 260.189 282.410,261.025 284.855,261.555 286.591 C 265.670 300.086,267.718 302.638,273.209 301.113 C 275.629 300.441,283.260 293.692,283.260 292.223 C 283.260 291.909,283.536 291.555,283.874 291.435 C 284.744 291.128,286.065 289.879,286.065 289.363 C 286.065 289.124,286.214 288.875,286.397 288.811 C 286.580 288.747,289.016 286.458,291.811 283.724 C 295.349 280.263,297.402 278.528,298.573 278.010 C 299.498 277.601,300.585 276.956,300.989 276.576 C 302.848 274.830,308.420 274.881,310.342 276.663 C 310.830 277.115,312.006 277.765,312.957 278.106 C 314.427 278.635,317.937 281.487,320.245 284.029 C 322.132 286.106,324.553 288.127,325.611 288.508 C 326.323 288.764,327.379 289.330,327.958 289.766 C 329.113 290.636,330.797 291.135,333.742 291.482 C 334.803 291.607,336.635 292.092,337.814 292.560 C 338.993 293.028,341.359 293.734,343.072 294.129 C 346.655 294.955,351.473 296.488,352.498 297.128 C 352.883 297.369,354.067 297.929,355.127 298.372 C 357.713 299.452,359.932 301.336,360.431 302.876 C 360.652 303.560,361.128 304.540,361.489 305.053 C 361.849 305.567,362.584 307.066,363.123 308.384 C 364.813 312.521,367.662 315.662,374.645 321.089 C 376.688 322.676,382.109 328.628,383.456 330.762 C 383.943 331.534,384.749 332.564,385.247 333.053 C 385.745 333.541,386.427 334.409,386.762 334.981 C 387.375 336.027,389.074 338.241,390.820 340.269 C 391.338 340.871,392.314 342.104,392.989 343.010 C 393.663 343.916,394.620 345.160,395.115 345.773 C 396.431 347.404,397.546 349.342,397.546 349.998 C 397.546 350.418,397.872 350.570,398.773 350.570 C 399.903 350.570,400.000 350.486,400.000 349.518 C 400.000 348.640,399.860 348.466,399.154 348.466 C 398.512 348.466,398.037 348.028,397.189 346.649 C 396.574 345.650,395.181 343.751,394.092 342.429 C 390.439 337.993,388.082 334.980,387.160 333.567 C 386.657 332.796,385.809 331.691,385.276 331.113 C 384.743 330.535,383.914 329.425,383.433 328.647 C 382.332 326.867,375.951 320.403,373.234 318.315 C 369.464 315.419,369.087 315.052,366.688 311.948 C 365.237 310.070,364.066 308.136,363.701 307.015 C 363.372 306.001,362.767 304.698,362.357 304.119 C 361.948 303.541,361.303 302.459,360.924 301.716 C 359.400 298.725,353.067 295.137,346.624 293.614 C 344.558 293.126,342.037 292.410,341.022 292.023 C 340.007 291.637,337.756 291.154,336.021 290.951 C 332.472 290.536,330.816 290.097,329.535 289.231 C 329.053 288.905,327.766 288.283,326.675 287.850 C 324.994 287.182,324.082 286.412,320.723 282.827 C 317.544 279.435,316.370 278.425,314.819 277.744 C 313.755 277.277,312.098 276.395,311.139 275.783 C 308.478 274.088,302.833 274.099,300.235 275.804 C 299.286 276.427,297.865 277.239,297.076 277.608 C 295.557 278.319,287.601 286.011,281.855 292.324 C 272.533 302.564,268.549 303.173,265.918 294.760 C 265.478 293.352,264.492 290.622,263.726 288.694 C 262.961 286.766,262.128 284.400,261.874 283.436 C 261.620 282.472,260.970 280.657,260.428 279.404 C 259.887 278.151,259.202 276.048,258.906 274.731 C 258.609 273.415,257.983 271.680,257.514 270.875 C 257.045 270.071,256.345 268.264,255.957 266.860 C 255.570 265.455,254.795 263.483,254.235 262.478 C 253.676 261.472,253.009 260.096,252.755 259.422 C 252.280 258.165,248.855 253.144,246.525 250.289 C 245.102 248.545,242.793 246.373,238.738 242.964 C 233.814 238.825,223.219 227.737,219.982 223.336 C 217.436 219.873,213.363 218.417,209.171 219.471 " stroke="none" fill="#95a4cc" fill-rule="evenodd"></path></g></svg>