<?xml version="1.0" encoding="UTF-8"?>
<!DOCTYPE svg PUBLIC "-//W3C//DTD SVG 1.1//EN" "http://www.w3.org/Graphics/SVG/1.1/DTD/svg11.dtd">
<svg xmlns="http://www.w3.org/2000/svg" version="1.1" width="278px" height="278px" style="shape-rendering:geometricPrecision; text-rendering:geometricPrecision; image-rendering:optimizeQuality; fill-rule:evenodd; clip-rule:evenodd" xmlns:xlink="http://www.w3.org/1999/xlink">
<g><path style="opacity:1" fill="#fde853" d="M -0.5,-0.5 C 92.1667,-0.5 184.833,-0.5 277.5,-0.5C 277.5,92.1667 277.5,184.833 277.5,277.5C 184.833,277.5 92.1667,277.5 -0.5,277.5C -0.5,184.833 -0.5,92.1667 -0.5,-0.5 Z"/></g>
<g><path style="opacity:1" fill="#959962" d="M 152.5,20.5 C 147.463,20.4126 142.463,20.746 137.5,21.5C 137.918,20.7784 138.584,20.2784 139.5,20C 144.02,19.1864 148.354,19.353 152.5,20.5 Z"/></g>
<g><path style="opacity:1" fill="#1f3972" d="M 152.5,20.5 C 153.5,21.1667 154.5,21.8333 155.5,22.5C 154.5,22.5 153.5,22.5 152.5,22.5C 145.853,21.9106 139.519,22.9106 133.5,25.5C 132.448,25.6495 131.448,25.4828 130.5,25C 131.942,24.6232 132.942,23.7899 133.5,22.5C 134.959,22.5674 136.292,22.2341 137.5,21.5C 142.463,20.746 147.463,20.4126 152.5,20.5 Z"/></g>
<g><path style="opacity:1" fill="#f8e554" d="M 152.5,22.5 C 153.688,23.3636 154.855,24.3636 156,25.5C 156.498,28.4816 156.665,31.4816 156.5,34.5C 131.124,46.2028 108.458,61.8695 88.5,81.5C 77.7813,91.3872 67.448,101.887 57.5,113C 51.482,113.988 45.6486,113.488 40,111.5C 39.3333,110.5 39.3333,109.5 40,108.5C 64.2105,72.7776 95.3771,45.111 133.5,25.5C 139.519,22.9106 145.853,21.9106 152.5,22.5 Z"/></g>
<g><path style="opacity:1" fill="#1b3773" d="M 96.5,29.5 C 95.6618,29.1583 95.3284,28.4916 95.5,27.5C 97.258,27.1231 98.9246,26.4565 100.5,25.5C 100.833,25.8333 101.167,26.1667 101.5,26.5C 100.312,28.2623 98.6449,29.2623 96.5,29.5 Z"/></g>
<g><path style="opacity:1" fill="#55606d" d="M 95.5,27.5 C 95.3284,28.4916 95.6618,29.1583 96.5,29.5C 96.0269,30.9063 95.0269,31.573 93.5,31.5C 94.463,30.6365 94.463,29.9698 93.5,29.5C 91.5504,30.3721 89.5504,31.0388 87.5,31.5C 89.7886,29.6127 92.4553,28.2794 95.5,27.5 Z"/></g>
<g><path style="opacity:1" fill="#58676a" d="M 171.5,29.5 C 175.981,28.3516 180.648,28.1849 185.5,29C 186.056,29.3826 186.389,29.8826 186.5,30.5C 185.833,30.5 185.5,30.8333 185.5,31.5C 181.167,31.5 176.833,31.5 172.5,31.5C 176.312,30.6762 180.312,30.1762 184.5,30C 180.179,29.501 175.846,29.3343 171.5,29.5 Z"/></g>
<g><path style="opacity:1" fill="#f6e354" d="M 172.5,31.5 C 176.833,31.5 181.167,31.5 185.5,31.5C 187.091,32.2189 188.591,33.2189 190,34.5C 190.777,39.222 190.61,43.8887 189.5,48.5C 169.473,56.3438 151.139,67.0105 134.5,80.5C 109.652,99.5144 87.6525,121.348 68.5,146C 65.978,147.341 63.3113,148.174 60.5,148.5C 54.5362,149.307 48.5362,149.64 42.5,149.5C 47.3628,138.459 53.6961,128.293 61.5,119C 69.4069,115.978 77.0736,112.478 84.5,108.5C 108.177,94.3333 129.011,76.6667 147,55.5C 151.523,49.5009 155.356,43.1675 158.5,36.5C 160.967,36.2451 162.967,35.2451 164.5,33.5C 167.167,32.8333 169.833,32.1667 172.5,31.5 Z"/></g>
<g><path style="opacity:1" fill="#888d66" d="M 164.5,33.5 C 162.967,35.2451 160.967,36.2451 158.5,36.5C 160.033,34.7549 162.033,33.7549 164.5,33.5 Z"/></g>
<g><path style="opacity:1" fill="#6d7869" d="M 192.5,34.5 C 193.167,38.8333 193.833,43.1667 194.5,47.5C 194.5,48.1667 194.167,48.5 193.5,48.5C 192.514,44.03 192.181,39.3633 192.5,34.5 Z"/></g>
<g><path style="opacity:1" fill="#f4e255" d="M 151.5,39.5 C 152.833,39.5 153.5,40.1667 153.5,41.5C 139.621,61.8784 122.288,78.7117 101.5,92C 93.7703,96.5265 86.1036,101.026 78.5,105.5C 76.0612,107.035 73.3945,107.868 70.5,108C 77.7045,99.7892 85.0378,91.6225 92.5,83.5C 110.447,66.5571 130.113,51.8904 151.5,39.5 Z"/></g>
<g><path style="opacity:1" fill="#bcb85d" d="M 209.5,46.5 C 205.131,46.4672 200.798,46.8005 196.5,47.5C 198.634,45.9666 201.134,45.2999 204,45.5C 206.033,45.5056 207.866,45.8389 209.5,46.5 Z"/></g>
<g><path style="opacity:1" fill="#384871" d="M 186.5,30.5 C 188.754,31.4151 190.754,32.7484 192.5,34.5C 192.181,39.3633 192.514,44.03 193.5,48.5C 193.5,49.1667 193.833,49.5 194.5,49.5C 193.833,50.1667 193.167,50.8333 192.5,51.5C 186.271,60.4091 179.605,69.0758 172.5,77.5C 172.5,76.1667 171.833,75.5 170.5,75.5C 175.809,68.5186 181.143,61.5186 186.5,54.5C 186,54.1667 185.5,53.8333 185,53.5C 167.928,61.2793 152.094,70.9459 137.5,82.5C 137.649,81.448 137.483,80.448 137,79.5C 136.329,80.2524 135.496,80.5858 134.5,80.5C 151.139,67.0105 169.473,56.3438 189.5,48.5C 190.61,43.8887 190.777,39.222 190,34.5C 188.591,33.2189 187.091,32.2189 185.5,31.5C 185.5,30.8333 185.833,30.5 186.5,30.5 Z"/></g>
<g><path style="opacity:1" fill="#b7b25f" d="M 213.5,50.5 C 206.465,50.3257 199.465,50.6591 192.5,51.5C 193.167,50.8333 193.833,50.1667 194.5,49.5C 201.075,47.8601 207.408,48.1934 213.5,50.5 Z"/></g>
<g><path style="opacity:1" fill="#f8e554" d="M 213.5,50.5 C 215.139,51.4725 216.473,52.8058 217.5,54.5C 217.726,59.5624 217.392,64.5624 216.5,69.5C 215.833,71.5 215.167,73.5 214.5,75.5C 203.547,79.4726 192.88,84.3059 182.5,90C 165.789,100.884 150.123,113.05 135.5,126.5C 118.215,141.615 102.882,158.448 89.5,177C 79.4255,182.019 68.7589,184.519 57.5,184.5C 60.2587,175.403 64.092,166.736 69,158.5C 70.5355,155.706 72.7022,153.706 75.5,152.5C 78.2672,151.41 81.1005,150.41 84,149.5C 85.0299,149.164 85.5299,148.497 85.5,147.5C 118.672,129.325 147.672,105.992 172.5,77.5C 179.605,69.0758 186.271,60.4091 192.5,51.5C 199.465,50.6591 206.465,50.3257 213.5,50.5 Z"/></g>
<g><path style="opacity:1" fill="#304471" d="M 152.5,22.5 C 153.5,22.5 154.5,22.5 155.5,22.5C 157.017,22.5106 158.184,23.1772 159,24.5C 159.497,27.146 159.664,29.8127 159.5,32.5C 163.385,31.0949 167.385,30.0949 171.5,29.5C 175.846,29.3343 180.179,29.501 184.5,30C 180.312,30.1762 176.312,30.6762 172.5,31.5C 169.833,32.1667 167.167,32.8333 164.5,33.5C 162.033,33.7549 160.033,34.7549 158.5,36.5C 155.356,43.1675 151.523,49.5009 147,55.5C 129.011,76.6667 108.177,94.3333 84.5,108.5C 84.0825,107.778 83.4158,107.278 82.5,107C 83.7112,106.107 83.7112,105.274 82.5,104.5C 81.2638,105.246 79.9305,105.579 78.5,105.5C 86.1036,101.026 93.7703,96.5265 101.5,92C 122.288,78.7117 139.621,61.8784 153.5,41.5C 155.273,40.6857 155.773,39.3524 155,37.5C 153.698,38.0848 152.531,38.7515 151.5,39.5C 130.113,51.8904 110.447,66.5571 92.5,83.5C 91.713,81.8958 90.3797,81.2291 88.5,81.5C 108.458,61.8695 131.124,46.2028 156.5,34.5C 156.665,31.4816 156.498,28.4816 156,25.5C 154.855,24.3636 153.688,23.3636 152.5,22.5 Z"/></g>
<g><path style="opacity:1" fill="#909364" d="M 153.5,41.5 C 153.5,40.1667 152.833,39.5 151.5,39.5C 152.531,38.7515 153.698,38.0848 155,37.5C 155.773,39.3524 155.273,40.6857 153.5,41.5 Z"/></g>
<g><path style="opacity:1" fill="#273d72" d="M 209.5,46.5 C 214.628,47.9569 218.628,50.9569 221.5,55.5C 221.495,59.5341 221.162,63.5341 220.5,67.5C 220.5,67.8333 220.5,68.1667 220.5,68.5C 219.833,68.5 219.167,68.5 218.5,68.5C 218.636,65.65 218.969,62.8166 219.5,60C 219.607,57.7794 218.94,55.9461 217.5,54.5C 216.473,52.8058 215.139,51.4725 213.5,50.5C 207.408,48.1934 201.075,47.8601 194.5,49.5C 193.833,49.5 193.5,49.1667 193.5,48.5C 194.167,48.5 194.5,48.1667 194.5,47.5C 195.167,47.5 195.833,47.5 196.5,47.5C 200.798,46.8005 205.131,46.4672 209.5,46.5 Z"/></g>
<g><path style="opacity:1" fill="#f6e354" d="M 170.5,75.5 C 144.958,102.351 115.625,124.351 82.5,141.5C 82.1667,141.167 81.8333,140.833 81.5,140.5C 89.8125,130.353 98.3125,120.353 107,110.5C 116.985,101.017 127.152,91.6837 137.5,82.5C 152.094,70.9459 167.928,61.2793 185,53.5C 185.5,53.8333 186,54.1667 186.5,54.5C 181.143,61.5186 175.809,68.5186 170.5,75.5 Z"/></g>
<g><path style="opacity:1" fill="#b0ac60" d="M 217.5,54.5 C 218.94,55.9461 219.607,57.7794 219.5,60C 218.969,62.8166 218.636,65.65 218.5,68.5C 217.833,68.8333 217.167,69.1667 216.5,69.5C 217.392,64.5624 217.726,59.5624 217.5,54.5 Z"/></g>
<g><path style="opacity:1" fill="#c3bd5d" d="M 221.5,55.5 C 222.162,57.3035 222.495,59.3035 222.5,61.5C 222.461,63.9522 221.794,65.9522 220.5,67.5C 221.162,63.5341 221.495,59.5341 221.5,55.5 Z"/></g>
<g><path style="opacity:1" fill="#273f72" d="M 133.5,22.5 C 132.942,23.7899 131.942,24.6232 130.5,25C 131.448,25.4828 132.448,25.6495 133.5,25.5C 95.3771,45.111 64.2105,72.7776 40,108.5C 39.3333,109.5 39.3333,110.5 40,111.5C 45.6486,113.488 51.482,113.988 57.5,113C 67.448,101.887 77.7813,91.3872 88.5,81.5C 90.3797,81.2291 91.713,81.8958 92.5,83.5C 85.0378,91.6225 77.7045,99.7892 70.5,108C 73.3945,107.868 76.0612,107.035 78.5,105.5C 79.9305,105.579 81.2638,105.246 82.5,104.5C 83.7112,105.274 83.7112,106.107 82.5,107C 83.4158,107.278 84.0825,107.778 84.5,108.5C 77.0736,112.478 69.4069,115.978 61.5,119C 53.6961,128.293 47.3628,138.459 42.5,149.5C 47.6503,150.651 52.9836,150.817 58.5,150C 59.4158,149.722 60.0825,149.222 60.5,148.5C 63.3113,148.174 65.978,147.341 68.5,146C 87.6525,121.348 109.652,99.5144 134.5,80.5C 135.496,80.5858 136.329,80.2524 137,79.5C 137.483,80.448 137.649,81.448 137.5,82.5C 127.152,91.6837 116.985,101.017 107,110.5C 98.3125,120.353 89.8125,130.353 81.5,140.5C 81.8333,140.833 82.1667,141.167 82.5,141.5C 115.625,124.351 144.958,102.351 170.5,75.5C 171.833,75.5 172.5,76.1667 172.5,77.5C 147.672,105.992 118.672,129.325 85.5,147.5C 81.6211,148.436 78.2877,150.103 75.5,152.5C 72.7022,153.706 70.5355,155.706 69,158.5C 64.092,166.736 60.2587,175.403 57.5,184.5C 68.7589,184.519 79.4255,182.019 89.5,177C 102.882,158.448 118.215,141.615 135.5,126.5C 137.93,126.263 140.263,126.263 142.5,126.5C 134.869,134.632 127.036,142.632 119,150.5C 113.805,156.395 108.971,162.561 104.5,169C 108.96,167.608 113.293,165.608 117.5,163C 128.87,156.321 139.87,149.154 150.5,141.5C 153.082,141.025 155.082,141.692 156.5,143.5C 137.353,158.915 116.686,172.082 94.5,183C 93.0268,185.448 91.6935,187.948 90.5,190.5C 89.0937,190.973 88.427,191.973 88.5,193.5C 84.6108,199.495 82.2775,206.162 81.5,213.5C 90.5203,211.385 99.5203,209.051 108.5,206.5C 110.967,206.245 112.967,205.245 114.5,203.5C 142.843,163.457 178.843,131.957 222.5,109C 227.463,107.857 232.13,106.024 236.5,103.5C 238.745,100.101 240.411,96.434 241.5,92.5C 242.404,93.209 242.737,94.209 242.5,95.5C 241.629,98.1123 240.963,100.779 240.5,103.5C 243.385,103.194 246.052,103.527 248.5,104.5C 245.167,105.167 241.833,105.833 238.5,106.5C 233.497,115.835 227.497,124.501 220.5,132.5C 218.413,133.585 217.08,135.251 216.5,137.5C 188.803,166.674 157.136,190.507 121.5,209C 120.748,209.671 120.414,210.504 120.5,211.5C 119.094,211.973 118.427,212.973 118.5,214.5C 117.167,218.167 115.833,221.833 114.5,225.5C 113.521,228.625 113.187,231.958 113.5,235.5C 115.698,235.88 117.365,235.213 118.5,233.5C 127.873,230.542 136.873,226.709 145.5,222C 151.809,212.538 158.476,203.372 165.5,194.5C 167.426,193.758 169.259,192.758 171,191.5C 171.513,192.527 172.013,193.527 172.5,194.5C 167.561,200.2 163.228,206.366 159.5,213C 161.282,213.122 162.948,212.622 164.5,211.5C 166.17,211.249 167.67,210.582 169,209.5C 169.698,210.691 170.531,211.691 171.5,212.5C 166.009,216.746 160.342,220.746 154.5,224.5C 153.12,224.962 152.453,225.962 152.5,227.5C 151.431,232.8 151.264,238.134 152,243.5C 152.977,244.774 153.811,244.774 154.5,243.5C 156.482,243.005 158.482,242.505 160.5,242C 170.678,236.413 180.678,230.58 190.5,224.5C 193.926,224.35 194.259,225.516 191.5,228C 192.056,228.383 192.389,228.883 192.5,229.5C 182.542,237.154 171.876,243.82 160.5,249.5C 159.957,249.56 159.624,249.893 159.5,250.5C 163.984,251.811 168.317,251.811 172.5,250.5C 175.659,249.669 178.659,248.669 181.5,247.5C 184.716,247.655 187.383,246.655 189.5,244.5C 201.629,238.264 212.963,230.764 223.5,222C 231.019,213.982 238.352,205.816 245.5,197.5C 245.833,197.667 246.167,197.833 246.5,198C 227.666,228.182 201.333,248.515 167.5,259C 162.167,259.667 156.833,259.667 151.5,259C 149.509,258.626 147.842,257.793 146.5,256.5C 144.872,255.147 143.538,255.481 142.5,257.5C 140.435,257.517 138.435,257.85 136.5,258.5C 129.813,259.741 123.146,259.741 116.5,258.5C 110.618,256.538 106.284,252.705 103.5,247C 97.2047,247.484 90.8714,247.484 84.5,247C 76.5517,244.554 71.5517,239.387 69.5,231.5C 69.5,229.5 69.5,227.5 69.5,225.5C 66.1667,225.5 62.8333,225.5 59.5,225.5C 50.9979,222.331 45.6646,216.331 43.5,207.5C 43.5,203.167 43.5,198.833 43.5,194.5C 42.5,194.5 41.5,194.5 40.5,194.5C 38.1877,193.68 35.8543,192.847 33.5,192C 32.0422,189.54 30.2089,187.373 28,185.5C 27.1553,183.389 26.322,181.389 25.5,179.5C 25.2743,174.438 25.6076,169.438 26.5,164.5C 26.6646,162.173 27.3313,160.007 28.5,158C 25.1894,155.205 22.5228,152.039 20.5,148.5C 19.746,143.537 19.4126,138.537 19.5,133.5C 20.7949,131.021 21.7949,128.354 22.5,125.5C 23.663,121.65 25.3297,117.983 27.5,114.5C 24.4711,109.18 23.8044,103.513 25.5,97.5C 27.9669,90.1947 31.1335,83.1947 35,76.5C 48.9315,57.4066 66.4315,42.4066 87.5,31.5C 89.5504,31.0388 91.5504,30.3721 93.5,29.5C 94.463,29.9698 94.463,30.6365 93.5,31.5C 71.1319,42.6938 53.2985,59.0272 40,80.5C 37.8617,85.088 36.0283,89.7547 34.5,94.5C 33.5269,96.9479 33.1936,99.6146 33.5,102.5C 34.791,102.737 35.791,102.404 36.5,101.5C 59.741,69.7632 88.741,44.5965 123.5,26C 126.748,24.5405 130.081,23.3738 133.5,22.5 Z"/></g>
<g><path style="opacity:1" fill="#f7e454" d="M 241.5,92.5 C 240.411,96.434 238.745,100.101 236.5,103.5C 232.13,106.024 227.463,107.857 222.5,109C 178.843,131.957 142.843,163.457 114.5,203.5C 112.033,203.755 110.033,204.755 108.5,206.5C 99.5203,209.051 90.5203,211.385 81.5,213.5C 82.2775,206.162 84.6108,199.495 88.5,193.5C 89.9063,193.027 90.573,192.027 90.5,190.5C 91.6935,187.948 93.0268,185.448 94.5,183C 116.686,172.082 137.353,158.915 156.5,143.5C 180.695,124.64 201.029,102.307 217.5,76.5C 224.359,74.6916 231.026,75.1916 237.5,78C 241.027,82.1655 242.36,86.9989 241.5,92.5 Z"/></g>
<g><path style="opacity:1" fill="#40506f" d="M 218.5,68.5 C 219.167,68.5 219.833,68.5 220.5,68.5C 219.841,70.1379 219.174,71.8045 218.5,73.5C 219,73.8333 219.5,74.1667 220,74.5C 229.018,71.7095 236.685,73.7095 243,80.5C 244.994,85.6641 244.827,90.6641 242.5,95.5C 242.737,94.209 242.404,93.209 241.5,92.5C 242.36,86.9989 241.027,82.1655 237.5,78C 231.026,75.1916 224.359,74.6916 217.5,76.5C 217.657,75.1266 217.49,73.7932 217,72.5C 216.764,74.1193 215.931,75.1193 214.5,75.5C 215.167,73.5 215.833,71.5 216.5,69.5C 217.167,69.1667 217.833,68.8333 218.5,68.5 Z"/></g>
<g><path style="opacity:1" fill="#f5e354" d="M 150.5,141.5 C 139.87,149.154 128.87,156.321 117.5,163C 113.293,165.608 108.96,167.608 104.5,169C 108.971,162.561 113.805,156.395 119,150.5C 127.036,142.632 134.869,134.632 142.5,126.5C 157.374,113.386 173.041,101.22 189.5,90C 195.707,86.3969 202.04,83.0636 208.5,80C 209.635,79.2506 210.635,79.4173 211.5,80.5C 194.091,103.909 173.758,124.242 150.5,141.5 Z"/></g>
<g><path style="opacity:1" fill="#2f4371" d="M 217.5,76.5 C 201.029,102.307 180.695,124.64 156.5,143.5C 155.082,141.692 153.082,141.025 150.5,141.5C 173.758,124.242 194.091,103.909 211.5,80.5C 210.635,79.4173 209.635,79.2506 208.5,80C 202.04,83.0636 195.707,86.3969 189.5,90C 173.041,101.22 157.374,113.386 142.5,126.5C 140.263,126.263 137.93,126.263 135.5,126.5C 150.123,113.05 165.789,100.884 182.5,90C 192.88,84.3059 203.547,79.4726 214.5,75.5C 215.931,75.1193 216.764,74.1193 217,72.5C 217.49,73.7932 217.657,75.1266 217.5,76.5 Z"/></g>
<g><path style="opacity:1" fill="#7d8566" d="M 34.5,94.5 C 33.9898,97.3878 34.6565,99.7211 36.5,101.5C 35.791,102.404 34.791,102.737 33.5,102.5C 33.1936,99.6146 33.5269,96.9479 34.5,94.5 Z"/></g>
<g><path style="opacity:1" fill="#606d6a" d="M 248.5,104.5 C 249.791,104.263 250.791,104.596 251.5,105.5C 249.302,105.409 248.969,106.075 250.5,107.5C 246.566,106.64 242.566,106.307 238.5,106.5C 241.833,105.833 245.167,105.167 248.5,104.5 Z"/></g>
<g><path style="opacity:1" fill="#f7e454" d="M 238.5,106.5 C 242.566,106.307 246.566,106.64 250.5,107.5C 252.173,108.343 253.34,109.676 254,111.5C 254.667,115.833 254.667,120.167 254,124.5C 251.936,128.961 249.602,133.294 247,137.5C 214.826,149.185 187.659,168.185 165.5,194.5C 158.476,203.372 151.809,212.538 145.5,222C 136.873,226.709 127.873,230.542 118.5,233.5C 117.417,233.539 116.417,233.873 115.5,234.5C 114.516,231.572 114.183,228.572 114.5,225.5C 115.833,221.833 117.167,218.167 118.5,214.5C 119.906,214.027 120.573,213.027 120.5,211.5C 120.414,210.504 120.748,209.671 121.5,209C 157.136,190.507 188.803,166.674 216.5,137.5C 218.587,136.415 219.92,134.749 220.5,132.5C 227.497,124.501 233.497,115.835 238.5,106.5 Z"/></g>
<g><path style="opacity:1" fill="#a2a162" d="M 231.5,108.5 C 229.967,110.245 227.967,111.245 225.5,111.5C 227.033,109.755 229.033,108.755 231.5,108.5 Z"/></g>
<g><path style="opacity:1" fill="#f5e354" d="M 225.5,111.5 C 227.967,111.245 229.967,110.245 231.5,108.5C 232.575,107.438 233.575,107.438 234.5,108.5C 223.137,124.654 209.804,139.154 194.5,152C 174.462,168.106 153.295,182.606 131,195.5C 131.044,193.721 131.711,192.055 133,190.5C 153.227,165.273 176.394,143.107 202.5,124C 209.91,119.296 217.577,115.129 225.5,111.5 Z"/></g>
<g><path style="opacity:1" fill="#717b68" d="M 255.5,109.5 C 256.117,109.611 256.617,109.944 257,110.5C 257.812,114.689 257.645,118.689 256.5,122.5C 256.706,118.102 256.373,113.768 255.5,109.5 Z"/></g>
<g><path style="opacity:1" fill="#747e68" d="M 33.5,121.5 C 35.9533,120.355 38.2866,120.688 40.5,122.5C 38.139,122.326 35.8056,121.993 33.5,121.5 Z"/></g>
<g><path style="opacity:1" fill="#f5e354" d="M 33.5,121.5 C 35.8056,121.993 38.139,122.326 40.5,122.5C 43.5184,122.335 46.5184,122.502 49.5,123C 44.2756,130.05 39.2756,137.216 34.5,144.5C 33.0295,143.619 32.1962,142.286 32,140.5C 31.0223,133.987 31.5223,127.654 33.5,121.5 Z"/></g>
<g><path style="opacity:1" fill="#a8a760" d="M 22.5,125.5 C 21.7949,128.354 20.7949,131.021 19.5,133.5C 19.3072,130.189 20.3072,127.522 22.5,125.5 Z"/></g>
<g><path style="opacity:1" fill="#a8a561" d="M 220.5,132.5 C 219.92,134.749 218.587,136.415 216.5,137.5C 217.08,135.251 218.413,133.585 220.5,132.5 Z"/></g>
<g><path style="opacity:1" fill="#7b8466" d="M 19.5,133.5 C 19.4126,138.537 19.746,143.537 20.5,148.5C 19.0092,145.814 18.3425,142.814 18.5,139.5C 18.5046,137.304 18.838,135.304 19.5,133.5 Z"/></g>
<g><path style="opacity:1" fill="#f8e554" d="M 256.5,144.5 C 257.557,149.134 257.557,153.8 256.5,158.5C 247.878,173.292 237.211,186.459 224.5,198C 213.553,207.461 202.22,216.294 190.5,224.5C 180.678,230.58 170.678,236.413 160.5,242C 158.482,242.505 156.482,243.005 154.5,243.5C 153.163,241.651 152.497,239.484 152.5,237C 153.03,232.79 153.696,228.623 154.5,224.5C 160.342,220.746 166.009,216.746 171.5,212.5C 201.035,193.809 226.368,170.309 247.5,142C 251.071,141.141 254.071,141.974 256.5,144.5 Z"/></g>
<g><path style="opacity:1" fill="#f5e354" d="M 240.5,145.5 C 232.8,155.708 224.133,165.208 214.5,174C 198.522,187.486 181.855,199.986 164.5,211.5C 162.948,212.622 161.282,213.122 159.5,213C 163.228,206.366 167.561,200.2 172.5,194.5C 188.041,176.955 205.708,161.955 225.5,149.5C 228.188,148.487 230.854,147.487 233.5,146.5C 235.55,146.039 237.55,145.372 239.5,144.5C 240.107,144.624 240.44,144.957 240.5,145.5 Z"/></g>
<g><path style="opacity:1" fill="#5d6c6a" d="M 60.5,148.5 C 60.0825,149.222 59.4158,149.722 58.5,150C 52.9836,150.817 47.6503,150.651 42.5,149.5C 48.5362,149.64 54.5362,149.307 60.5,148.5 Z"/></g>
<g><path style="opacity:1" fill="#bbb45f" d="M 85.5,147.5 C 85.5299,148.497 85.0299,149.164 84,149.5C 81.1005,150.41 78.2672,151.41 75.5,152.5C 78.2877,150.103 81.6211,148.436 85.5,147.5 Z"/></g>
<g><path style="opacity:1" fill="#a4a462" d="M 58.5,160.5 C 57.0813,159.549 55.4147,159.216 53.5,159.5C 55.3432,158.717 57.3432,158.05 59.5,157.5C 60.6653,158.86 60.332,159.86 58.5,160.5 Z"/></g>
<g><path style="opacity:1" fill="#59676c" d="M 47.5,159.5 C 44.5,160.167 41.5,160.833 38.5,161.5C 38.1667,161.5 37.8333,161.5 37.5,161.5C 40.3373,159.598 43.6707,158.931 47.5,159.5 Z"/></g>
<g><path style="opacity:1" fill="#aeab60" d="M 47.5,159.5 C 49.1667,159.5 50.8333,159.5 52.5,159.5C 48.1193,161.211 43.4526,161.877 38.5,161.5C 41.5,160.833 44.5,160.167 47.5,159.5 Z"/></g>
<g><path style="opacity:1" fill="#f5e354" d="M 52.5,159.5 C 52.8333,159.5 53.1667,159.5 53.5,159.5C 55.4147,159.216 57.0813,159.549 58.5,160.5C 54.2449,168.009 50.2449,175.676 46.5,183.5C 42.5957,182.076 39.7624,179.409 38,175.5C 37.5008,170.845 37.3342,166.179 37.5,161.5C 37.8333,161.5 38.1667,161.5 38.5,161.5C 43.4526,161.877 48.1193,161.211 52.5,159.5 Z"/></g>
<g><path style="opacity:1" fill="#8f9463" d="M 26.5,164.5 C 25.6076,169.438 25.2743,174.438 25.5,179.5C 24.3516,175.019 24.1849,170.352 25,165.5C 25.3826,164.944 25.8826,164.611 26.5,164.5 Z"/></g>
<g><path style="opacity:1" fill="#2f4371" d="M 251.5,105.5 C 253.167,106.5 254.5,107.833 255.5,109.5C 256.373,113.768 256.706,118.102 256.5,122.5C 255.27,128.296 252.936,133.629 249.5,138.5C 259.359,140.199 262.859,145.866 260,155.5C 258.45,160.375 256.45,165.042 254,169.5C 237.254,193.413 216.754,213.413 192.5,229.5C 192.389,228.883 192.056,228.383 191.5,228C 194.259,225.516 193.926,224.35 190.5,224.5C 202.22,216.294 213.553,207.461 224.5,198C 237.211,186.459 247.878,173.292 256.5,158.5C 258.34,154.446 258.84,150.113 258,145.5C 257.617,144.944 257.117,144.611 256.5,144.5C 254.071,141.974 251.071,141.141 247.5,142C 226.368,170.309 201.035,193.809 171.5,212.5C 170.531,211.691 169.698,210.691 169,209.5C 167.67,210.582 166.17,211.249 164.5,211.5C 181.855,199.986 198.522,187.486 214.5,174C 224.133,165.208 232.8,155.708 240.5,145.5C 242.645,145.083 243.312,144.083 242.5,142.5C 239.043,143.094 236.043,144.427 233.5,146.5C 230.854,147.487 228.188,148.487 225.5,149.5C 205.708,161.955 188.041,176.955 172.5,194.5C 172.013,193.527 171.513,192.527 171,191.5C 169.259,192.758 167.426,193.758 165.5,194.5C 187.659,168.185 214.826,149.185 247,137.5C 249.602,133.294 251.936,128.961 254,124.5C 254.667,120.167 254.667,115.833 254,111.5C 253.34,109.676 252.173,108.343 250.5,107.5C 248.969,106.075 249.302,105.409 251.5,105.5 Z"/></g>
<g><path style="opacity:1" fill="#a9a960" d="M 256.5,144.5 C 257.117,144.611 257.617,144.944 258,145.5C 258.84,150.113 258.34,154.446 256.5,158.5C 257.557,153.8 257.557,149.134 256.5,144.5 Z"/></g>
<g><path style="opacity:1" fill="#b2b060" d="M 240.5,145.5 C 240.44,144.957 240.107,144.624 239.5,144.5C 237.55,145.372 235.55,146.039 233.5,146.5C 236.043,144.427 239.043,143.094 242.5,142.5C 243.312,144.083 242.645,145.083 240.5,145.5 Z"/></g>
<g><path style="opacity:1" fill="#f3e155" d="M 79.5,188.5 C 81.2252,188.843 81.7252,189.843 81,191.5C 78.3183,195.857 75.8183,200.357 73.5,205C 71.2969,216.425 66.1303,217.591 58,208.5C 55.8964,204.078 55.0631,199.412 55.5,194.5C 64.081,194.193 72.081,192.193 79.5,188.5 Z"/></g>
<g><path style="opacity:1" fill="#868c65" d="M 90.5,190.5 C 90.573,192.027 89.9063,193.027 88.5,193.5C 88.427,191.973 89.0937,190.973 90.5,190.5 Z"/></g>
<g><path style="opacity:1" fill="#989764" d="M 40.5,194.5 C 41.5,194.5 42.5,194.5 43.5,194.5C 43.5,198.833 43.5,203.167 43.5,207.5C 43.0357,203.05 42.0357,198.717 40.5,194.5 Z"/></g>
<g><path style="opacity:1" fill="#6e7869" d="M 114.5,203.5 C 112.967,205.245 110.967,206.245 108.5,206.5C 110.033,204.755 112.033,203.755 114.5,203.5 Z"/></g>
<g><path style="opacity:1" fill="#7b8466" d="M 120.5,211.5 C 120.573,213.027 119.906,214.027 118.5,214.5C 118.427,212.973 119.094,211.973 120.5,211.5 Z"/></g>
<g><path style="opacity:1" fill="#939564" d="M 107.5,217.5 C 106.368,216.646 105.035,216.646 103.5,217.5C 104.736,215.957 106.402,214.957 108.5,214.5C 109.798,216.052 109.465,217.052 107.5,217.5 Z"/></g>
<g><path style="opacity:1" fill="#f9e654" d="M 107.5,217.5 C 106.962,219.117 106.629,220.784 106.5,222.5C 105.414,222.62 104.747,223.287 104.5,224.5C 103.616,228.473 102.949,232.473 102.5,236.5C 98.1311,236.533 93.7978,236.2 89.5,235.5C 84.8255,232.828 82.1588,228.828 81.5,223.5C 83.8056,223.007 86.139,222.674 88.5,222.5C 91.7458,221.946 94.7458,220.946 97.5,219.5C 99.2143,218.262 101.214,217.595 103.5,217.5C 105.035,216.646 106.368,216.646 107.5,217.5 Z"/></g>
<g><path style="opacity:1" fill="#939664" d="M 97.5,219.5 C 94.7458,220.946 91.7458,221.946 88.5,222.5C 91.0076,220.446 94.0076,219.446 97.5,219.5 Z"/></g>
<g><path style="opacity:1" fill="#a5a461" d="M 59.5,225.5 C 62.8333,225.5 66.1667,225.5 69.5,225.5C 69.5,227.5 69.5,229.5 69.5,231.5C 68.5489,230.081 68.2155,228.415 68.5,226.5C 65.2869,226.81 62.2869,226.477 59.5,225.5 Z"/></g>
<g><path style="opacity:1" fill="#747f67" d="M 114.5,225.5 C 114.183,228.572 114.516,231.572 115.5,234.5C 116.417,233.873 117.417,233.539 118.5,233.5C 117.365,235.213 115.698,235.88 113.5,235.5C 113.187,231.958 113.521,228.625 114.5,225.5 Z"/></g>
<g><path style="opacity:1" fill="#ecdc57" d="M 118.5,244.5 C 118.771,242.57 119.771,241.236 121.5,240.5C 128.13,237.566 134.797,234.566 141.5,231.5C 141.662,237.036 141.662,242.702 141.5,248.5C 133.084,250.794 125.418,249.46 118.5,244.5 Z"/></g>
<g><path style="opacity:1" fill="#b1ad60" d="M 154.5,224.5 C 153.696,228.623 153.03,232.79 152.5,237C 152.497,239.484 153.163,241.651 154.5,243.5C 153.811,244.774 152.977,244.774 152,243.5C 151.264,238.134 151.431,232.8 152.5,227.5C 152.453,225.962 153.12,224.962 154.5,224.5 Z"/></g>
<g><path style="opacity:1" fill="#989a63" d="M 106.5,222.5 C 105.181,227.407 104.181,232.407 103.5,237.5C 99.4862,237.666 95.4862,237.499 91.5,237C 90.5842,236.722 89.9175,236.222 89.5,235.5C 93.7978,236.2 98.1311,236.533 102.5,236.5C 102.949,232.473 103.616,228.473 104.5,224.5C 104.747,223.287 105.414,222.62 106.5,222.5 Z"/></g>
<g><path style="opacity:1" fill="#828a66" d="M 121.5,240.5 C 119.771,241.236 118.771,242.57 118.5,244.5C 117.711,244.217 117.044,243.717 116.5,243C 117.653,241.117 119.319,240.284 121.5,240.5 Z"/></g>
<g><path style="opacity:1" fill="#a1a162" d="M 189.5,244.5 C 187.383,246.655 184.716,247.655 181.5,247.5C 183.936,246.129 186.603,245.129 189.5,244.5 Z"/></g>
<g><path style="opacity:1" fill="#929763" d="M 160.5,249.5 C 164.298,250.483 168.298,250.817 172.5,250.5C 168.317,251.811 163.984,251.811 159.5,250.5C 159.624,249.893 159.957,249.56 160.5,249.5 Z"/></g>
<g><path style="opacity:1" fill="#909265" d="M 146.5,256.5 C 145.167,256.833 143.833,257.167 142.5,257.5C 143.538,255.481 144.872,255.147 146.5,256.5 Z"/></g>
<g><path style="opacity:1" fill="#a3a362" d="M 116.5,258.5 C 123.146,259.741 129.813,259.741 136.5,258.5C 136.082,259.222 135.416,259.722 134.5,260C 131.5,260.167 128.5,260.333 125.5,260.5C 122.087,260.483 119.087,259.816 116.5,258.5 Z"/></g>
</svg>
