<?xml version="1.0" encoding="UTF-8"?>
<!DOCTYPE svg PUBLIC "-//W3C//DTD SVG 1.1//EN" "http://www.w3.org/Graphics/SVG/1.1/DTD/svg11.dtd">
<svg xmlns="http://www.w3.org/2000/svg" version="1.1" width="257px" height="278px" style="shape-rendering:geometricPrecision; text-rendering:geometricPrecision; image-rendering:optimizeQuality; fill-rule:evenodd; clip-rule:evenodd" xmlns:xlink="http://www.w3.org/1999/xlink">
<g><path style="opacity:1" fill="#fdfefe" d="M -0.5,-0.5 C 38.5,-0.5 77.5,-0.5 116.5,-0.5C 114.924,0.142944 113.59,1.14294 112.5,2.5C 87.3656,16.2345 62.3656,30.2345 37.5,44.5C 35.9731,44.427 34.9731,45.0937 34.5,46.5C 23.4486,51.0665 13.9486,57.7331 6,66.5C 4.25889,69.3093 3.09223,72.3093 2.5,75.5C 0.939706,77.1561 -0.0602941,79.1561 -0.5,81.5C -0.5,54.1667 -0.5,26.8333 -0.5,-0.5 Z"/></g>
<g><path style="opacity:1" fill="#7798b9" d="M 116.5,-0.5 C 123.5,-0.5 130.5,-0.5 137.5,-0.5C 137.833,0.166667 138.167,0.833333 138.5,1.5C 129.759,-0.014323 121.092,0.31901 112.5,2.5C 113.59,1.14294 114.924,0.142944 116.5,-0.5 Z"/></g>
<g><path style="opacity:1" fill="#fcfdfd" d="M 137.5,-0.5 C 177.167,-0.5 216.833,-0.5 256.5,-0.5C 256.5,92.1667 256.5,184.833 256.5,277.5C 215.833,277.5 175.167,277.5 134.5,277.5C 137.313,276.918 139.98,275.918 142.5,274.5C 149.302,270.262 156.302,266.262 163.5,262.5C 165.848,262.408 167.514,261.408 168.5,259.5C 181.37,251.899 194.37,244.566 207.5,237.5C 209.027,237.573 210.027,236.906 210.5,235.5C 212.25,234.13 214.25,233.13 216.5,232.5C 218.674,232.25 220.341,231.25 221.5,229.5C 227.241,225.788 233.241,222.288 239.5,219C 246.495,213.205 251.162,206.039 253.5,197.5C 254.665,157.669 254.831,117.669 254,77.5C 253.8,75.6803 252.966,74.347 251.5,73.5C 248.97,67.636 245.303,62.4693 240.5,58C 213.111,42.9786 186.111,27.4786 159.5,11.5C 157.967,9.75488 155.967,8.75488 153.5,8.5C 148.703,5.6948 143.703,3.36147 138.5,1.5C 138.167,0.833333 137.833,0.166667 137.5,-0.5 Z"/></g>
<g><path style="opacity:1" fill="#346799" d="M 138.5,1.5 C 143.703,3.36147 148.703,5.6948 153.5,8.5C 155.033,10.2451 157.033,11.2451 159.5,11.5C 186.111,27.4786 213.111,42.9786 240.5,58C 245.303,62.4693 248.97,67.636 251.5,73.5C 251.892,75.1789 252.392,76.8455 253,78.5C 253.5,118.165 253.667,157.832 253.5,197.5C 251.162,206.039 246.495,213.205 239.5,219C 233.241,222.288 227.241,225.788 221.5,229.5C 219.326,229.75 217.659,230.75 216.5,232.5C 214.25,233.13 212.25,234.13 210.5,235.5C 208.973,235.427 207.973,236.094 207.5,237.5C 194.37,244.566 181.37,251.899 168.5,259.5C 166.326,259.75 164.659,260.75 163.5,262.5C 156.302,266.262 149.302,270.262 142.5,274.5C 137.524,275.274 132.524,275.94 127.5,276.5C 123.182,275.918 118.849,275.585 114.5,275.5C 103.147,269.134 91.8134,262.8 80.5,256.5C 80.0269,255.094 79.0269,254.427 77.5,254.5C 63.9251,246.644 50.2584,238.978 36.5,231.5C 36.0269,230.094 35.0269,229.427 33.5,229.5C 22.0895,225.066 12.7561,218.066 5.5,208.5C 5.57298,206.973 4.90632,205.973 3.5,205.5C 2.20048,201.905 1.20048,198.238 0.5,194.5C 0.333347,157.498 0.500014,120.498 1,83.5C 1.39513,80.7934 1.89513,78.1267 2.5,75.5C 3.09223,72.3093 4.25889,69.3093 6,66.5C 13.9486,57.7331 23.4486,51.0665 34.5,46.5C 36.0269,46.573 37.0269,45.9063 37.5,44.5C 62.3656,30.2345 87.3656,16.2345 112.5,2.5C 121.092,0.31901 129.759,-0.014323 138.5,1.5 Z"/></g>
<g><path style="opacity:1" fill="#b4c6d8" d="M 153.5,8.5 C 155.967,8.75488 157.967,9.75488 159.5,11.5C 157.033,11.2451 155.033,10.2451 153.5,8.5 Z"/></g>
<g><path style="opacity:1" fill="#fafbfc" d="M 237.5,80.5 C 237.828,92.3453 237.495,104.012 236.5,115.5C 231.859,111.195 227.193,106.861 222.5,102.5C 221.089,100.086 219.089,98.4194 216.5,97.5C 204.514,87.3704 192.847,77.037 181.5,66.5C 179.851,67.6477 178.351,68.981 177,70.5C 174.136,78.3209 171.97,86.3209 170.5,94.5C 168.755,96.0326 167.755,98.0326 167.5,100.5C 166.662,100.842 166.328,101.508 166.5,102.5C 164.282,105.113 162.615,108.113 161.5,111.5C 160.26,112.973 159.26,114.64 158.5,116.5C 162.826,118.616 164.659,121.95 164,126.5C 163.308,127.025 162.808,127.692 162.5,128.5C 164.956,133.985 166.956,139.651 168.5,145.5C 169.946,146.613 171.613,146.78 173.5,146C 176,145.5 178.5,145 181,144.5C 182.376,144.316 183.209,143.649 183.5,142.5C 185.435,141.85 187.435,141.517 189.5,141.5C 192.43,140.701 195.43,140.368 198.5,140.5C 201.101,141.801 203.768,143.134 206.5,144.5C 206.973,145.906 207.973,146.573 209.5,146.5C 213.947,149.283 218.614,151.616 223.5,153.5C 226.13,152.622 228.797,151.955 231.5,151.5C 233.435,150.85 235.435,150.517 237.5,150.5C 237.5,151.5 237.5,152.5 237.5,153.5C 232.905,155.769 228.905,158.769 225.5,162.5C 222.912,161.416 220.745,159.749 219,157.5C 210.706,156.514 203.039,153.847 196,149.5C 193.402,151.55 190.569,153.216 187.5,154.5C 185.033,154.755 183.033,155.755 181.5,157.5C 179.91,157.628 178.577,158.295 177.5,159.5C 183.634,163.136 189.634,166.969 195.5,171C 196.423,173.86 197.423,176.693 198.5,179.5C 198.427,181.027 199.094,182.027 200.5,182.5C 202.957,188.411 205.124,194.411 207,200.5C 210.396,204.279 213.563,208.279 216.5,212.5C 214.956,214.446 212.956,214.946 210.5,214C 207.482,210.967 203.982,208.801 200,207.5C 200,204.833 200,202.167 200,199.5C 196.659,195.48 193.825,191.147 191.5,186.5C 190.94,184.199 190.44,181.866 190,179.5C 189.617,178.944 189.117,178.611 188.5,178.5C 181.169,177.507 174.169,175.34 167.5,172C 165.382,170.951 163.716,169.451 162.5,167.5C 160.544,166.508 158.544,165.508 156.5,164.5C 155.094,164.027 154.427,163.027 154.5,161.5C 153.935,159.048 153.268,156.715 152.5,154.5C 149.773,148.359 146.94,142.026 144,135.5C 143.333,134.833 142.667,134.167 142,133.5C 138.241,137.144 136.241,141.478 136,146.5C 140.088,151.686 143.921,157.02 147.5,162.5C 148.919,163.451 150.585,163.784 152.5,163.5C 152.833,164.167 153.167,164.833 153.5,165.5C 154.167,168.833 154.833,172.167 155.5,175.5C 153.814,178.005 151.481,178.838 148.5,178C 146.667,175.5 144.833,173 143,170.5C 142.607,168.801 143.107,167.301 144.5,166C 138.325,160.498 132.492,154.665 127,148.5C 126.333,146.5 126.333,144.5 127,142.5C 129.067,138.602 130.9,134.602 132.5,130.5C 134.729,127.646 136.062,124.313 136.5,120.5C 137.254,118.246 138.587,116.413 140.5,115C 140.333,114.5 140.167,114 140,113.5C 136.924,112.712 133.758,112.212 130.5,112C 128.944,111.28 127.944,110.113 127.5,108.5C 125.721,107.33 124.721,105.664 124.5,103.5C 126.191,99.9915 128.524,96.8249 131.5,94C 136.298,94.2601 140.964,95.0934 145.5,96.5C 145.915,98.7468 146.582,100.914 147.5,103C 145.774,105.706 146.274,107.872 149,109.5C 153.327,105.505 157.327,101.172 161,96.5C 165.719,84.9019 170.552,73.4019 175.5,62C 174.35,60.019 173.016,58.1857 171.5,56.5C 170.415,54.4131 168.749,53.0798 166.5,52.5C 164.704,51.2073 163.037,49.7073 161.5,48C 160.5,47.3333 159.5,47.3333 158.5,48C 133.44,71.3978 108.107,94.3978 82.5,117C 81.2161,117.684 80.0495,117.517 79,116.5C 78.235,114.934 78.4017,113.601 79.5,112.5C 80.9063,112.027 81.573,111.027 81.5,109.5C 86.0379,102.26 90.7045,95.0931 95.5,88C 89.6001,81.0955 83.2668,74.4289 76.5,68C 73.8604,67.161 71.5271,67.661 69.5,69.5C 52.8025,84.8654 35.8025,99.8654 18.5,114.5C 17.5054,103.679 17.1721,92.6794 17.5,81.5C 17.5861,79.323 18.2528,77.323 19.5,75.5C 28.4413,67.6847 38.4413,61.3513 49.5,56.5C 51.0269,56.573 52.0269,55.9063 52.5,54.5C 74.275,41.7742 96.275,29.2742 118.5,17C 123.076,15.5236 127.743,15.1902 132.5,16C 164.296,33.399 195.963,51.0656 227.5,69C 232.104,71.7681 235.438,75.6015 237.5,80.5 Z"/></g>
<g><path style="opacity:1" fill="#8ba8c4" d="M 37.5,44.5 C 37.0269,45.9063 36.0269,46.573 34.5,46.5C 34.9731,45.0937 35.9731,44.427 37.5,44.5 Z"/></g>
<g><path style="opacity:1" fill="#b3c5d7" d="M 166.5,52.5 C 168.749,53.0798 170.415,54.4131 171.5,56.5C 169.251,55.9202 167.585,54.5869 166.5,52.5 Z"/></g>
<g><path style="opacity:1" fill="#9fb7ce" d="M 52.5,54.5 C 52.0269,55.9063 51.0269,56.573 49.5,56.5C 49.9731,55.0937 50.9731,54.427 52.5,54.5 Z"/></g>
<g><path style="opacity:1" fill="#608bb1" d="M 251.5,73.5 C 252.966,74.347 253.8,75.6803 254,77.5C 254.831,117.669 254.665,157.669 253.5,197.5C 253.667,157.832 253.5,118.165 253,78.5C 252.392,76.8455 251.892,75.1789 251.5,73.5 Z"/></g>
<g><path style="opacity:1" fill="#99b0c8" d="M 2.5,75.5 C 1.89513,78.1267 1.39513,80.7934 1,83.5C 0.500014,120.498 0.333347,157.498 0.5,194.5C 0.166667,194.5 -0.166667,194.5 -0.5,194.5C -0.5,156.833 -0.5,119.167 -0.5,81.5C -0.0602941,79.1561 0.939706,77.1561 2.5,75.5 Z"/></g>
<g><path style="opacity:1" fill="#6c93b7" d="M 16.5,81.5 C 15.8556,93.216 16.5223,104.549 18.5,115.5C 18.189,116.478 17.5223,117.145 16.5,117.5C 15.1755,105.34 15.1755,93.3398 16.5,81.5 Z"/></g>
<g><path style="opacity:1" fill="#d7e0ea" d="M 16.5,81.5 C 16.8333,81.5 17.1667,81.5 17.5,81.5C 17.1721,92.6794 17.5054,103.679 18.5,114.5C 18.5,114.833 18.5,115.167 18.5,115.5C 16.5223,104.549 15.8556,93.216 16.5,81.5 Z"/></g>
<g><path style="opacity:1" fill="#a0b8ce" d="M 237.5,80.5 C 238.825,92.3398 238.825,104.34 237.5,116.5C 236.893,116.376 236.56,116.043 236.5,115.5C 237.495,104.012 237.828,92.3453 237.5,80.5 Z"/></g>
<g><path style="opacity:1" fill="#b7c8da" d="M 216.5,97.5 C 219.089,98.4194 221.089,100.086 222.5,102.5C 219.911,101.581 217.911,99.914 216.5,97.5 Z"/></g>
<g><path style="opacity:1" fill="#7c9cbc" d="M 170.5,94.5 C 170.245,96.9674 169.245,98.9674 167.5,100.5C 167.755,98.0326 168.755,96.0326 170.5,94.5 Z"/></g>
<g><path style="opacity:1" fill="#c0cedd" d="M 124.5,103.5 C 124.721,105.664 125.721,107.33 127.5,108.5C 126.632,111.327 126.632,114.327 127.5,117.5C 126.153,114.337 124.986,111.004 124,107.5C 123.722,108.416 123.222,109.082 122.5,109.5C 122.259,107.102 122.926,105.102 124.5,103.5 Z"/></g>
<g><path style="opacity:1" fill="#eff3f6" d="M 127.5,117.5 C 128.524,121.439 128.191,125.439 126.5,129.5C 125.167,129.5 123.833,129.5 122.5,129.5C 121.317,122.807 121.317,116.141 122.5,109.5C 123.222,109.082 123.722,108.416 124,107.5C 124.986,111.004 126.153,114.337 127.5,117.5 Z"/></g>
<g><path style="opacity:1" fill="#7597b8" d="M 166.5,102.5 C 165.513,105.146 164.513,107.812 163.5,110.5C 163.043,111.298 162.376,111.631 161.5,111.5C 162.615,108.113 164.282,105.113 166.5,102.5 Z"/></g>
<g><path style="opacity:1" fill="#9eb6cd" d="M 81.5,109.5 C 81.573,111.027 80.9063,112.027 79.5,112.5C 79.427,110.973 80.0937,109.973 81.5,109.5 Z"/></g>
<g><path style="opacity:1" fill="#9cb5cd" d="M 136.5,120.5 C 136.062,124.313 134.729,127.646 132.5,130.5C 133.428,127.546 134.261,124.546 135,121.5C 135.383,120.944 135.883,120.611 136.5,120.5 Z"/></g>
<g><path style="opacity:1" fill="#8fa9c4" d="M 122.5,129.5 C 123.833,129.5 125.167,129.5 126.5,129.5C 125.335,132.022 124.002,132.022 122.5,129.5 Z"/></g>
<g><path style="opacity:1" fill="#3d6e9d" d="M 152.5,154.5 C 152.702,156.989 152.202,159.323 151,161.5C 149.989,162.337 148.822,162.67 147.5,162.5C 143.921,157.02 140.088,151.686 136,146.5C 136.241,141.478 138.241,137.144 142,133.5C 142.667,134.167 143.333,134.833 144,135.5C 146.94,142.026 149.773,148.359 152.5,154.5 Z"/></g>
<g><path style="opacity:1" fill="#aec1d5" d="M 198.5,140.5 C 195.43,140.368 192.43,140.701 189.5,141.5C 189.611,140.883 189.944,140.383 190.5,140C 193.367,139.199 196.034,139.366 198.5,140.5 Z"/></g>
<g><path style="opacity:1" fill="#a5bad1" d="M 183.5,142.5 C 183.209,143.649 182.376,144.316 181,144.5C 178.5,145 176,145.5 173.5,146C 171.613,146.78 169.946,146.613 168.5,145.5C 173.584,144.883 178.584,143.883 183.5,142.5 Z"/></g>
<g><path style="opacity:1" fill="#94aec8" d="M 206.5,144.5 C 208.027,144.427 209.027,145.094 209.5,146.5C 207.973,146.573 206.973,145.906 206.5,144.5 Z"/></g>
<g><path style="opacity:1" fill="#86a5c2" d="M 237.5,153.5 C 237.5,152.5 237.5,151.5 237.5,150.5C 235.435,150.517 233.435,150.85 231.5,151.5C 231.611,150.883 231.944,150.383 232.5,150C 234.473,149.505 236.473,149.338 238.5,149.5C 238.768,151.099 238.434,152.432 237.5,153.5 Z"/></g>
<g><path style="opacity:1" fill="#99b1ca" d="M 187.5,154.5 C 185.967,156.245 183.967,157.245 181.5,157.5C 183.033,155.755 185.033,154.755 187.5,154.5 Z"/></g>
<g><path style="opacity:1" fill="#cbd6e3" d="M 152.5,154.5 C 153.268,156.715 153.935,159.048 154.5,161.5C 153.167,161.5 152.5,162.167 152.5,163.5C 150.585,163.784 148.919,163.451 147.5,162.5C 148.822,162.67 149.989,162.337 151,161.5C 152.202,159.323 152.702,156.989 152.5,154.5 Z"/></g>
<g><path style="opacity:1" fill="#bcccdc" d="M 156.5,164.5 C 158.544,165.508 160.544,166.508 162.5,167.5C 159.687,167.975 157.687,166.975 156.5,164.5 Z"/></g>
<g><path style="opacity:1" fill="#c7d4e2" d="M 153.5,165.5 C 156.329,168.489 156.996,171.822 155.5,175.5C 154.833,172.167 154.167,168.833 153.5,165.5 Z"/></g>
<g><path style="opacity:1" fill="#9ab2cb" d="M 198.5,179.5 C 199.906,179.973 200.573,180.973 200.5,182.5C 199.094,182.027 198.427,181.027 198.5,179.5 Z"/></g>
<g><path style="opacity:1" fill="#7294b7" d="M 188.5,178.5 C 189.117,178.611 189.617,178.944 190,179.5C 190.44,181.866 190.94,184.199 191.5,186.5C 190.883,186.389 190.383,186.056 190,185.5C 189.56,183.134 189.06,180.801 188.5,178.5 Z"/></g>
<g><path style="opacity:1" fill="#fdfdfe" d="M -0.5,194.5 C -0.166667,194.5 0.166667,194.5 0.5,194.5C 1.20048,198.238 2.20048,201.905 3.5,205.5C 3.42702,207.027 4.09368,208.027 5.5,208.5C 12.7561,218.066 22.0895,225.066 33.5,229.5C 33.9731,230.906 34.9731,231.573 36.5,231.5C 50.2584,238.978 63.9251,246.644 77.5,254.5C 77.9731,255.906 78.9731,256.573 80.5,256.5C 91.8134,262.8 103.147,269.134 114.5,275.5C 115.833,276.167 117.167,276.833 118.5,277.5C 78.8333,277.5 39.1667,277.5 -0.5,277.5C -0.5,249.833 -0.5,222.167 -0.5,194.5 Z"/></g>
<g><path style="opacity:1" fill="#a1b6cd" d="M 3.5,205.5 C 4.90632,205.973 5.57298,206.973 5.5,208.5C 4.09368,208.027 3.42702,207.027 3.5,205.5 Z"/></g>
<g><path style="opacity:1" fill="#93adc8" d="M 33.5,229.5 C 35.0269,229.427 36.0269,230.094 36.5,231.5C 34.9731,231.573 33.9731,230.906 33.5,229.5 Z"/></g>
<g><path style="opacity:1" fill="#a3b9cf" d="M 221.5,229.5 C 220.341,231.25 218.674,232.25 216.5,232.5C 217.659,230.75 219.326,229.75 221.5,229.5 Z"/></g>
<g><path style="opacity:1" fill="#9eb5cd" d="M 210.5,235.5 C 210.027,236.906 209.027,237.573 207.5,237.5C 207.973,236.094 208.973,235.427 210.5,235.5 Z"/></g>
<g><path style="opacity:1" fill="#90acc7" d="M 77.5,254.5 C 79.0269,254.427 80.0269,255.094 80.5,256.5C 78.9731,256.573 77.9731,255.906 77.5,254.5 Z"/></g>
<g><path style="opacity:1" fill="#acc0d4" d="M 168.5,259.5 C 167.514,261.408 165.848,262.408 163.5,262.5C 164.659,260.75 166.326,259.75 168.5,259.5 Z"/></g>
<g><path style="opacity:1" fill="#799bbc" d="M 142.5,274.5 C 139.98,275.918 137.313,276.918 134.5,277.5C 129.167,277.5 123.833,277.5 118.5,277.5C 117.167,276.833 115.833,276.167 114.5,275.5C 118.849,275.585 123.182,275.918 127.5,276.5C 132.524,275.94 137.524,275.274 142.5,274.5 Z"/></g>
</svg>
