<?xml version="1.0" encoding="UTF-8"?>
<!DOCTYPE svg PUBLIC "-//W3C//DTD SVG 1.1//EN" "http://www.w3.org/Graphics/SVG/1.1/DTD/svg11.dtd">
<svg xmlns="http://www.w3.org/2000/svg" version="1.1" width="600px" height="400px" style="shape-rendering:geometricPrecision; text-rendering:geometricPrecision; image-rendering:optimizeQuality; fill-rule:evenodd; clip-rule:evenodd" xmlns:xlink="http://www.w3.org/1999/xlink">
<g><path style="opacity:1" fill="#fefefe" d="M -0.5,-0.5 C 199.5,-0.5 399.5,-0.5 599.5,-0.5C 599.5,132.833 599.5,266.167 599.5,399.5C 399.5,399.5 199.5,399.5 -0.5,399.5C -0.5,266.167 -0.5,132.833 -0.5,-0.5 Z"/></g>
<g><path style="opacity:1" fill="#fbfdf1" d="M 376.5,107.5 C 375.289,104.734 373.956,102.068 372.5,99.5C 370.845,95.6174 369.179,91.6174 367.5,87.5C 365.235,86.3526 362.902,86.1859 360.5,87C 357.635,90.6919 354.635,94.1919 351.5,97.5C 352.027,93.3525 353.361,89.5191 355.5,86C 354.663,84.9887 354.33,83.8221 354.5,82.5C 355.5,82.5 356.5,82.5 357.5,82.5C 357.5,83.5 357.5,84.5 357.5,85.5C 360.09,85.6038 362.423,84.9371 364.5,83.5C 366.453,84.1556 368.453,84.4889 370.5,84.5C 372.126,99.0637 373.126,99.0637 373.5,84.5C 375.971,84.233 377.638,85.233 378.5,87.5C 378.019,90.0832 377.352,92.5832 376.5,95C 378.134,95.4935 379.801,95.6602 381.5,95.5C 381.301,92.059 381.801,88.7256 383,85.5C 383.667,90.1667 383.667,94.8333 383,99.5C 382.667,99.1667 382.333,98.8333 382,98.5C 381.529,100.246 380.862,101.913 380,103.5C 379.51,102.207 379.343,100.873 379.5,99.5C 378.178,99.67 377.011,99.3366 376,98.5C 375.699,101.507 375.865,104.507 376.5,107.5 Z"/></g>
<g><path style="opacity:1" fill="#e9b543" d="M 372.5,99.5 C 373.918,104.754 374.918,110.087 375.5,115.5C 373.856,115.714 372.356,115.38 371,114.5C 369.608,109.216 367.775,104.216 365.5,99.5C 365.567,97.5992 365.233,95.7659 364.5,94C 364.15,92.7425 363.483,92.4092 362.5,93C 358.151,99.0072 353.485,104.674 348.5,110C 347.207,110.49 345.873,110.657 344.5,110.5C 344.372,108.345 344.872,106.345 346,104.5C 348.43,102.578 350.263,100.245 351.5,97.5C 354.635,94.1919 357.635,90.6919 360.5,87C 362.902,86.1859 365.235,86.3526 367.5,87.5C 369.179,91.6174 370.845,95.6174 372.5,99.5 Z"/></g>
<g><path style="opacity:1" fill="#fbf6d5" d="M 365.5,99.5 C 364.596,98.791 364.263,97.791 364.5,96.5C 363.5,96.5 362.5,96.5 361.5,96.5C 361.167,98.5 360.833,100.5 360.5,102.5C 359.127,102.343 357.793,102.51 356.5,103C 354.645,105.045 353.311,107.379 352.5,110C 348.94,111.237 345.273,111.737 341.5,111.5C 342.219,108.927 343.219,106.427 344.5,104C 341.741,103.023 339.741,103.856 338.5,106.5C 338.167,106 337.833,105.5 337.5,105C 339.249,102.914 340.583,100.581 341.5,98C 342.833,97.3333 344.167,97.3333 345.5,98C 344.663,99.0113 344.33,100.178 344.5,101.5C 345.552,101.649 346.552,101.483 347.5,101C 348.532,99.3732 349.866,98.2066 351.5,97.5C 350.263,100.245 348.43,102.578 346,104.5C 344.872,106.345 344.372,108.345 344.5,110.5C 345.873,110.657 347.207,110.49 348.5,110C 353.485,104.674 358.151,99.0072 362.5,93C 363.483,92.4092 364.15,92.7425 364.5,94C 365.233,95.7659 365.567,97.5992 365.5,99.5 Z"/></g>
<g><path style="opacity:1" fill="#fcf6cf" d="M 294.5,104.5 C 296.827,104.247 298.827,104.914 300.5,106.5C 301.167,106.167 301.833,105.833 302.5,105.5C 305.783,108.17 309.117,110.837 312.5,113.5C 314.187,117.123 313.02,119.123 309,119.5C 307.833,119.333 306.667,119.167 305.5,119C 301.214,117.335 296.88,115.668 292.5,114C 291.953,113.075 291.287,112.242 290.5,111.5C 289.25,117.504 289.25,123.504 290.5,129.5C 289.636,135.351 286.803,136.684 282,133.5C 281.176,123.991 281.342,114.657 282.5,105.5C 282.726,114.872 283.392,124.205 284.5,133.5C 285.822,133.67 286.989,133.337 288,132.5C 288.29,124.154 288.29,115.821 288,107.5C 294.302,111.378 300.802,114.878 307.5,118C 311.167,118.667 312.167,117.333 310.5,114C 304.948,111.063 299.614,107.896 294.5,104.5 Z"/></g>
<g><path style="opacity:1" fill="#ebb440" d="M 294.5,104.5 C 299.614,107.896 304.948,111.063 310.5,114C 312.167,117.333 311.167,118.667 307.5,118C 300.802,114.878 294.302,111.378 288,107.5C 288.29,115.821 288.29,124.154 288,132.5C 286.989,133.337 285.822,133.67 284.5,133.5C 283.392,124.205 282.726,114.872 282.5,105.5C 282.685,103.11 284.018,102.11 286.5,102.5C 289.233,102.968 291.9,103.635 294.5,104.5 Z"/></g>
<g><path style="opacity:1" fill="#fbf3c6" d="M 365.5,99.5 C 367.775,104.216 369.608,109.216 371,114.5C 372.356,115.38 373.856,115.714 375.5,115.5C 374.918,110.087 373.918,104.754 372.5,99.5C 373.956,102.068 375.289,104.734 376.5,107.5C 378.027,110.796 377.693,113.962 375.5,117C 372.211,117.746 369.711,116.58 368,113.5C 367.653,108.706 366.82,104.04 365.5,99.5 Z"/></g>
<g><path style="opacity:1" fill="#f1b132" d="M 431.5,140.5 C 427.399,141.552 426.733,140.386 429.5,137C 429.355,136.228 429.022,135.561 428.5,135C 420.802,135.095 413.136,135.428 405.5,136C 404.259,134.513 404.759,133.68 407,133.5C 411.665,132.978 416.165,132.311 420.5,131.5C 423.976,130.357 427.642,130.19 431.5,131C 432.98,132.299 433.646,133.966 433.5,136C 433.693,138.008 433.026,139.508 431.5,140.5 Z"/></g>
<g><path style="opacity:1" fill="#dcb44e" d="M 327.5,135.5 C 327.063,137.074 326.063,138.241 324.5,139C 319.943,140.05 315.609,141.55 311.5,143.5C 315.92,139.097 321.253,136.431 327.5,135.5 Z"/></g>
<g><path style="opacity:1" fill="#d3b764" d="M 367.5,137.5 C 371.57,138.524 374.904,140.524 377.5,143.5C 376.448,143.649 375.448,143.483 374.5,143C 372.097,141.147 369.764,139.314 367.5,137.5 Z"/></g>
<g><path style="opacity:1" fill="#6c8582" d="M 365.5,135.5 C 370.035,137.008 374.702,138.342 379.5,139.5C 378.339,141.378 379.006,142.378 381.5,142.5C 382.713,142.253 383.38,141.586 383.5,140.5C 384.872,141.512 386.205,142.512 387.5,143.5C 385.712,143.215 384.045,143.548 382.5,144.5C 384.611,145.605 385.945,147.271 386.5,149.5C 382.957,148.222 379.957,146.222 377.5,143.5C 374.904,140.524 371.57,138.524 367.5,137.5C 366.833,136.833 366.167,136.167 365.5,135.5 Z"/></g>
<g><path style="opacity:1" fill="#fbf4cb" d="M 421.5,159.5 C 425.103,153.293 428.436,146.96 431.5,140.5C 433.026,139.508 433.693,138.008 433.5,136C 433.646,133.966 432.98,132.299 431.5,131C 427.642,130.19 423.976,130.357 420.5,131.5C 416.167,131.5 411.833,131.5 407.5,131.5C 408.334,130.252 409.667,129.585 411.5,129.5C 418.507,128.323 425.507,128.323 432.5,129.5C 434.508,133.229 435.008,137.229 434,141.5C 430.866,147.092 427.7,152.759 424.5,158.5C 423.675,159.386 422.675,159.719 421.5,159.5 Z"/></g>
<g><path style="opacity:1" fill="#faf9e3" d="M 407.5,131.5 C 406.081,132.451 404.415,132.784 402.5,132.5C 402.157,136.134 403.823,137.801 407.5,137.5C 414.16,136.701 420.827,136.034 427.5,135.5C 425.362,141.109 422.696,146.442 419.5,151.5C 418.126,146.727 417.126,142.06 416.5,137.5C 411.585,138.726 406.585,139.393 401.5,139.5C 401.5,136.833 401.5,134.167 401.5,131.5C 403.5,131.5 405.5,131.5 407.5,131.5 Z"/></g>
<g><path style="opacity:1" fill="#f9b222" d="M 359.5,134.5 C 361.503,136.982 364.169,137.982 367.5,137.5C 369.764,139.314 372.097,141.147 374.5,143C 375.448,143.483 376.448,143.649 377.5,143.5C 379.957,146.222 382.957,148.222 386.5,149.5C 391.335,155.184 395.669,161.184 399.5,167.5C 399.565,170.428 400.232,173.095 401.5,175.5C 401.668,187.892 401.002,200.225 399.5,212.5C 396.887,215.645 395.221,219.311 394.5,223.5C 393.833,224.167 393.167,224.833 392.5,225.5C 387.484,224.942 382.484,224.275 377.5,223.5C 375.167,223.5 372.833,223.5 370.5,223.5C 371.337,218.364 370.003,214.031 366.5,210.5C 365.833,210.167 365.167,209.833 364.5,209.5C 364.267,207.938 363.6,206.605 362.5,205.5C 361.01,201.776 358.344,199.776 354.5,199.5C 354.586,198.504 354.252,197.671 353.5,197C 349.687,194.618 345.52,193.452 341,193.5C 336.21,194.751 331.376,195.751 326.5,196.5C 326.799,194.396 326.466,192.396 325.5,190.5C 323.5,186.167 321.5,181.833 319.5,177.5C 317.639,176.472 316.305,174.972 315.5,173C 310.942,172.11 307.942,169.444 306.5,165C 305.552,164.517 304.552,164.351 303.5,164.5C 303.5,163.5 303.5,162.5 303.5,161.5C 299.062,162.575 297.062,160.908 297.5,156.5C 300.921,150.743 305.588,146.409 311.5,143.5C 315.609,141.55 319.943,140.05 324.5,139C 326.063,138.241 327.063,137.074 327.5,135.5C 338.135,134.596 348.802,134.263 359.5,134.5 Z"/></g>
<g><path style="opacity:1" fill="#e5b44c" d="M 407.5,131.5 C 411.833,131.5 416.167,131.5 420.5,131.5C 416.165,132.311 411.665,132.978 407,133.5C 404.759,133.68 404.259,134.513 405.5,136C 413.136,135.428 420.802,135.095 428.5,135C 429.022,135.561 429.355,136.228 429.5,137C 426.733,140.386 427.399,141.552 431.5,140.5C 428.436,146.96 425.103,153.293 421.5,159.5C 420.167,159.5 418.833,159.5 417.5,159.5C 417.584,156.673 418.25,154.006 419.5,151.5C 422.696,146.442 425.362,141.109 427.5,135.5C 420.827,136.034 414.16,136.701 407.5,137.5C 403.823,137.801 402.157,136.134 402.5,132.5C 404.415,132.784 406.081,132.451 407.5,131.5 Z"/></g>
<g><path style="opacity:1" fill="#608394" d="M 387.5,143.5 C 392.53,148.204 396.864,153.537 400.5,159.5C 399.351,159.791 398.684,160.624 398.5,162C 398.943,163.825 399.277,165.658 399.5,167.5C 395.669,161.184 391.335,155.184 386.5,149.5C 385.945,147.271 384.611,145.605 382.5,144.5C 384.045,143.548 385.712,143.215 387.5,143.5 Z"/></g>
<g><path style="opacity:1" fill="#59839c" d="M 383.5,140.5 C 383.38,141.586 382.713,142.253 381.5,142.5C 379.006,142.378 378.339,141.378 379.5,139.5C 374.702,138.342 370.035,137.008 365.5,135.5C 363.5,135.167 361.5,134.833 359.5,134.5C 359.5,134.167 359.5,133.833 359.5,133.5C 354.923,132.01 350.09,131.344 345,131.5C 341.648,131.502 338.482,131.835 335.5,132.5C 332.422,132.62 329.755,133.62 327.5,135.5C 321.253,136.431 315.92,139.097 311.5,143.5C 305.588,146.409 300.921,150.743 297.5,156.5C 295.439,157.751 295.106,159.418 296.5,161.5C 299.632,163.046 302.298,165.046 304.5,167.5C 304.5,168.833 304.5,170.167 304.5,171.5C 308.8,171.815 310.467,174.149 309.5,178.5C 302.685,171.602 295.019,165.935 286.5,161.5C 288.467,161.261 290.301,161.594 292,162.5C 292.483,161.552 292.649,160.552 292.5,159.5C 290.821,159.715 289.821,159.048 289.5,157.5C 311.456,128.463 339.456,120.63 373.5,134C 377.069,135.942 380.402,138.108 383.5,140.5 Z"/></g>
<g><path style="opacity:1" fill="#c3b371" d="M 359.5,134.5 C 361.5,134.833 363.5,135.167 365.5,135.5C 366.167,136.167 366.833,136.833 367.5,137.5C 364.169,137.982 361.503,136.982 359.5,134.5 Z"/></g>
<g><path style="opacity:1" fill="#d4b35c" d="M 335.5,132.5 C 343.517,132.501 351.517,132.834 359.5,133.5C 359.5,133.833 359.5,134.167 359.5,134.5C 348.802,134.263 338.135,134.596 327.5,135.5C 329.755,133.62 332.422,132.62 335.5,132.5 Z"/></g>
<g><path style="opacity:1" fill="#6c7e67" d="M 335.5,132.5 C 338.482,131.835 341.648,131.502 345,131.5C 350.09,131.344 354.923,132.01 359.5,133.5C 351.517,132.834 343.517,132.501 335.5,132.5 Z"/></g>
<g><path style="opacity:1" fill="#a0daf2" d="M 286.5,161.5 C 295.019,165.935 302.685,171.602 309.5,178.5C 315.649,186.5 320.315,195.334 323.5,205C 328.579,203.152 333.912,201.985 339.5,201.5C 356.087,203.422 364.754,212.755 365.5,229.5C 388.65,228.312 403.816,238.645 411,260.5C 413.426,282.833 404.26,298 383.5,306C 373.542,307.083 363.542,307.583 353.5,307.5C 345.326,307.5 337.326,307.166 329.5,306.5C 336.939,288.717 338.772,270.384 335,251.5C 328.589,232.426 315.422,221.259 295.5,218C 262.364,212.699 236.53,223.866 218,251.5C 207.951,268.911 204.118,287.578 206.5,307.5C 190.052,308.804 176.386,303.471 165.5,291.5C 169.788,267.369 175.455,243.702 182.5,220.5C 188.124,219.061 193.791,217.728 199.5,216.5C 203.151,185.365 220.151,165.865 250.5,158C 262.8,156.554 274.8,157.721 286.5,161.5 Z"/></g>
<g><path style="opacity:1" fill="#708373" d="M 399.5,167.5 C 402.172,169.391 403.172,172.058 402.5,175.5C 402.167,175.5 401.833,175.5 401.5,175.5C 400.232,173.095 399.565,170.428 399.5,167.5 Z"/></g>
<g><path style="opacity:1" fill="#e3b349" d="M 297.5,156.5 C 297.062,160.908 299.062,162.575 303.5,161.5C 303.5,162.5 303.5,163.5 303.5,164.5C 304.552,164.351 305.552,164.517 306.5,165C 307.942,169.444 310.942,172.11 315.5,173C 316.305,174.972 317.639,176.472 319.5,177.5C 321.5,181.833 323.5,186.167 325.5,190.5C 326.466,192.396 326.799,194.396 326.5,196.5C 331.376,195.751 336.21,194.751 341,193.5C 345.52,193.452 349.687,194.618 353.5,197C 354.252,197.671 354.586,198.504 354.5,199.5C 345.783,196.104 336.949,195.77 328,198.5C 327.228,198.355 326.561,198.022 326,197.5C 325.434,195.277 324.6,193.277 323.5,191.5C 323.167,191.5 322.833,191.5 322.5,191.5C 319.255,181.568 313.255,173.568 304.5,167.5C 302.298,165.046 299.632,163.046 296.5,161.5C 295.106,159.418 295.439,157.751 297.5,156.5 Z"/></g>
<g><path style="opacity:1" fill="#effbfb" d="M 251.5,167.5 C 255.833,167.5 260.167,167.5 264.5,167.5C 264.714,169.144 264.38,170.644 263.5,172C 234.828,173.847 218.662,189.013 215,217.5C 213.644,218.38 212.144,218.714 210.5,218.5C 211.974,191.693 225.641,174.693 251.5,167.5 Z"/></g>
<g><path style="opacity:1" fill="#618387" d="M 304.5,167.5 C 313.255,173.568 319.255,181.568 322.5,191.5C 319.557,187.149 316.224,182.982 312.5,179C 311.552,178.517 310.552,178.351 309.5,178.5C 310.467,174.149 308.8,171.815 304.5,171.5C 304.5,170.167 304.5,168.833 304.5,167.5 Z"/></g>
<g><path style="opacity:1" fill="#fbf8dd" d="M 445.5,205.5 C 439.775,201.954 434.441,197.787 429.5,193C 428.207,192.51 426.873,192.343 425.5,192.5C 424.909,195.675 425.909,198.009 428.5,199.5C 425.079,199.238 424.079,200.572 425.5,203.5C 423.955,204.452 422.288,204.785 420.5,204.5C 421.732,200.305 423.065,196.138 424.5,192C 424.167,191.667 423.833,191.333 423.5,191C 426.584,189.016 429.584,189.182 432.5,191.5C 436.177,196.841 440.51,201.508 445.5,205.5 Z"/></g>
<g><path style="opacity:1" fill="#e0b64b" d="M 401.5,175.5 C 401.833,175.5 402.167,175.5 402.5,175.5C 402.216,177.415 402.549,179.081 403.5,180.5C 403.881,189.601 403.214,198.601 401.5,207.5C 400.833,209.167 400.167,210.833 399.5,212.5C 401.002,200.225 401.668,187.892 401.5,175.5 Z"/></g>
<g><path style="opacity:1" fill="#5284a4" d="M 289.5,157.5 C 289.821,159.048 290.821,159.715 292.5,159.5C 292.649,160.552 292.483,161.552 292,162.5C 290.301,161.594 288.467,161.261 286.5,161.5C 274.8,157.721 262.8,156.554 250.5,158C 220.151,165.865 203.151,185.365 199.5,216.5C 193.791,217.728 188.124,219.061 182.5,220.5C 182.5,219.5 182.5,218.5 182.5,217.5C 181.167,217.5 179.833,217.5 178.5,217.5C 183.66,214.461 189.327,212.795 195.5,212.5C 200.321,180.84 218.321,161.007 249.5,153C 263.256,151.291 276.59,152.791 289.5,157.5 Z"/></g>
<g><path style="opacity:1" fill="#ebb542" d="M 445.5,205.5 C 448.305,208.246 449.139,211.579 448,215.5C 446.887,216.305 445.721,216.972 444.5,217.5C 436.418,220.517 428.085,222.517 419.5,223.5C 419.202,219.347 421.202,217.347 425.5,217.5C 424.77,218.712 423.77,219.712 422.5,220.5C 426.753,221.517 430.753,220.85 434.5,218.5C 431.914,217.52 429.247,217.187 426.5,217.5C 432.079,215.808 437.746,213.975 443.5,212C 441.963,210.293 440.296,208.793 438.5,207.5C 435.424,204.415 432.091,201.748 428.5,199.5C 425.909,198.009 424.909,195.675 425.5,192.5C 426.873,192.343 428.207,192.51 429.5,193C 434.441,197.787 439.775,201.954 445.5,205.5 Z"/></g>
<g><path style="opacity:1" fill="#0fac0e" d="M 178.5,217.5 C 179.833,217.5 181.167,217.5 182.5,217.5C 182.5,218.5 182.5,219.5 182.5,220.5C 175.455,243.702 169.788,267.369 165.5,291.5C 164.539,293.265 164.205,295.265 164.5,297.5C 160.828,308.511 158.328,319.844 157,331.5C 158.319,333.487 160.152,334.654 162.5,335C 168.453,336.489 174.453,337.656 180.5,338.5C 180.425,341.206 180.092,343.873 179.5,346.5C 150.833,346.5 122.167,346.5 93.5,346.5C 94.0916,343.873 94.4249,341.206 94.5,338.5C 102.308,337.731 109.975,336.231 117.5,334C 120,332.833 121.833,331 123,328.5C 129.985,299.235 136.318,269.902 142,240.5C 130.963,243.608 119.797,246.275 108.5,248.5C 108.539,245.679 109.205,243.012 110.5,240.5C 127.458,232.903 144.458,225.403 161.5,218C 167.157,217.501 172.824,217.334 178.5,217.5 Z"/></g>
<g><path style="opacity:1" fill="#fcfbe4" d="M 438.5,207.5 C 440.296,208.793 441.963,210.293 443.5,212C 437.746,213.975 432.079,215.808 426.5,217.5C 426.167,217.5 425.833,217.5 425.5,217.5C 421.202,217.347 419.202,219.347 419.5,223.5C 428.085,222.517 436.418,220.517 444.5,217.5C 442.925,219.941 440.592,221.107 437.5,221C 433.835,222.497 430.502,224.497 427.5,227C 428.167,227.333 428.833,227.667 429.5,228C 427.075,228.293 425.242,229.459 424,231.5C 422.491,230.91 420.991,230.244 419.5,229.5C 419.709,228.914 420.043,228.414 420.5,228C 418.833,227 417.167,226 415.5,225C 416.167,224.667 416.833,224.333 417.5,224C 416.167,222 416.167,220 417.5,218C 420.044,216.908 422.711,216.241 425.5,216C 425.957,215.586 426.291,215.086 426.5,214.5C 430.775,213.424 435.108,212.757 439.5,212.5C 439.371,210.784 439.038,209.117 438.5,207.5 Z"/></g>
<g><path style="opacity:1" fill="#f3b02d" d="M 425.5,217.5 C 425.833,217.5 426.167,217.5 426.5,217.5C 429.247,217.187 431.914,217.52 434.5,218.5C 430.753,220.85 426.753,221.517 422.5,220.5C 423.77,219.712 424.77,218.712 425.5,217.5 Z"/></g>
<g><path style="opacity:1" fill="#0fac0f" d="M 329.5,306.5 C 328.514,308.426 327.514,310.426 326.5,312.5C 304.614,344.968 274.614,355.802 236.5,345C 221.384,339.05 211.718,328.216 207.5,312.5C 206.699,310.958 206.366,309.292 206.5,307.5C 204.118,287.578 207.951,268.911 218,251.5C 236.53,223.866 262.364,212.699 295.5,218C 315.422,221.259 328.589,232.426 335,251.5C 338.772,270.384 336.939,288.717 329.5,306.5 Z"/></g>
<g><path style="opacity:1" fill="#a0daf1" d="M 293.5,307.5 C 276.5,307.5 259.5,307.5 242.5,307.5C 240.859,283.72 246.026,261.387 258,240.5C 266.242,229.277 276.742,226.444 289.5,232C 295.197,236.892 298.697,243.059 300,250.5C 301.449,269.959 299.283,288.959 293.5,307.5 Z"/></g>
<g><path style="opacity:1" fill="#5483a2" d="M 400.5,159.5 C 408.027,173.222 410.527,187.889 408,203.5C 406.137,213.775 401.97,222.942 395.5,231C 415.513,244.895 421.347,263.395 413,286.5C 407.091,299.411 397.257,307.578 383.5,311C 364.547,312.435 345.547,312.935 326.5,312.5C 327.514,310.426 328.514,308.426 329.5,306.5C 337.326,307.166 345.326,307.5 353.5,307.5C 363.542,307.583 373.542,307.083 383.5,306C 404.26,298 413.426,282.833 411,260.5C 403.816,238.645 388.65,228.312 365.5,229.5C 364.754,212.755 356.087,203.422 339.5,201.5C 333.912,201.985 328.579,203.152 323.5,205C 320.315,195.334 315.649,186.5 309.5,178.5C 310.552,178.351 311.552,178.517 312.5,179C 316.224,182.982 319.557,187.149 322.5,191.5C 322.833,191.5 323.167,191.5 323.5,191.5C 323.466,194.199 324.133,196.699 325.5,199C 332.81,198.586 340.143,198.586 347.5,199C 350.371,201.457 353.705,202.624 357.5,202.5C 358.833,205.833 361.167,208.167 364.5,209.5C 365.167,209.833 365.833,210.167 366.5,210.5C 367.61,215.015 368.944,219.348 370.5,223.5C 370.611,224.117 370.944,224.617 371.5,225C 374.146,225.497 376.813,225.664 379.5,225.5C 381.099,225.232 382.432,225.566 383.5,226.5C 386.137,228.427 389.137,228.927 392.5,228C 394.141,226.871 395.141,225.371 395.5,223.5C 396.547,219.739 398.381,216.406 401,213.5C 401.495,211.527 401.662,209.527 401.5,207.5C 403.045,206.77 403.878,205.437 404,203.5C 404.822,195.655 404.656,187.989 403.5,180.5C 402.549,179.081 402.216,177.415 402.5,175.5C 403.172,172.058 402.172,169.391 399.5,167.5C 399.277,165.658 398.943,163.825 398.5,162C 398.684,160.624 399.351,159.791 400.5,159.5 Z"/></g>
<g><path style="opacity:1" fill="#6e8474" d="M 394.5,223.5 C 394.833,223.5 395.167,223.5 395.5,223.5C 395.141,225.371 394.141,226.871 392.5,228C 389.137,228.927 386.137,228.427 383.5,226.5C 385.547,226.511 387.547,226.844 389.5,227.5C 391.038,227.547 392.038,226.88 392.5,225.5C 393.167,224.833 393.833,224.167 394.5,223.5 Z"/></g>
<g><path style="opacity:1" fill="#d6b562" d="M 377.5,223.5 C 382.484,224.275 387.484,224.942 392.5,225.5C 392.038,226.88 391.038,227.547 389.5,227.5C 387.547,226.844 385.547,226.511 383.5,226.5C 382.432,225.566 381.099,225.232 379.5,225.5C 378.833,224.833 378.167,224.167 377.5,223.5 Z"/></g>
<g><path style="opacity:1" fill="#968f6a" d="M 370.5,223.5 C 372.833,223.5 375.167,223.5 377.5,223.5C 378.167,224.167 378.833,224.833 379.5,225.5C 376.813,225.664 374.146,225.497 371.5,225C 370.944,224.617 370.611,224.117 370.5,223.5 Z"/></g>
<g><path style="opacity:1" fill="#bba76b" d="M 401.5,207.5 C 401.662,209.527 401.495,211.527 401,213.5C 398.381,216.406 396.547,219.739 395.5,223.5C 395.167,223.5 394.833,223.5 394.5,223.5C 395.221,219.311 396.887,215.645 399.5,212.5C 400.167,210.833 400.833,209.167 401.5,207.5 Z"/></g>
<g><path style="opacity:1" fill="#c6b167" d="M 366.5,210.5 C 370.003,214.031 371.337,218.364 370.5,223.5C 368.944,219.348 367.61,215.015 366.5,210.5 Z"/></g>
<g><path style="opacity:1" fill="#7f8868" d="M 403.5,180.5 C 404.656,187.989 404.822,195.655 404,203.5C 403.878,205.437 403.045,206.77 401.5,207.5C 403.214,198.601 403.881,189.601 403.5,180.5 Z"/></g>
<g><path style="opacity:1" fill="#6e7c71" d="M 357.5,202.5 C 358.922,203.925 360.589,204.925 362.5,205.5C 363.6,206.605 364.267,207.938 364.5,209.5C 361.167,208.167 358.833,205.833 357.5,202.5 Z"/></g>
<g><path style="opacity:1" fill="#d3b250" d="M 354.5,199.5 C 358.344,199.776 361.01,201.776 362.5,205.5C 360.589,204.925 358.922,203.925 357.5,202.5C 356.306,201.728 355.306,200.728 354.5,199.5 Z"/></g>
<g><path style="opacity:1" fill="#6b8081" d="M 323.5,191.5 C 324.6,193.277 325.434,195.277 326,197.5C 326.561,198.022 327.228,198.355 328,198.5C 336.949,195.77 345.783,196.104 354.5,199.5C 355.306,200.728 356.306,201.728 357.5,202.5C 353.705,202.624 350.371,201.457 347.5,199C 340.143,198.586 332.81,198.586 325.5,199C 324.133,196.699 323.466,194.199 323.5,191.5 Z"/></g>
<g><path style="opacity:1" fill="#5283a4" d="M 165.5,291.5 C 176.386,303.471 190.052,308.804 206.5,307.5C 206.366,309.292 206.699,310.958 207.5,312.5C 190.585,314.369 176.252,309.369 164.5,297.5C 164.205,295.265 164.539,293.265 165.5,291.5 Z"/></g>
<g><path style="opacity:1" fill="#55809d" d="M 242.5,307.5 C 259.5,307.5 276.5,307.5 293.5,307.5C 293.107,309.284 292.441,310.95 291.5,312.5C 275.167,312.5 258.833,312.5 242.5,312.5C 242.5,310.833 242.5,309.167 242.5,307.5 Z"/></g>
<g><path style="opacity:1" fill="#fafcfb" d="M 242.5,312.5 C 258.833,312.5 275.167,312.5 291.5,312.5C 288.328,322.682 281.995,330.182 272.5,335C 254.492,338.518 244.492,331.018 242.5,312.5 Z"/></g>
</svg>
